<?xml version="1.0" encoding="UTF-8"?>
<svg width="250px" height="250px" viewBox="0 0 250 250" version="1.1" xmlns="http://www.w3.org/2000/svg" xmlns:xlink="http://www.w3.org/1999/xlink">
    <title>tweet-logo</title>
    <defs>
        <linearGradient x1="58.5769841%" y1="5.99360011%" x2="99.6504811%" y2="68.6808625%" id="linearGradient-1">
            <stop stop-color="#874FFF" offset="6.77083%"></stop>
            <stop stop-color="#36AFE2" offset="46.3542%"></stop>
            <stop stop-color="#41FF54" offset="85.9375%"></stop>
        </linearGradient>
    </defs>
    <g id="Page-1" stroke="none" stroke-width="1" fill="none" fill-rule="evenodd">
        <g id="tweet-logo">
            <rect id="Rectangle" fill="#000000" fill-rule="nonzero" x="0" y="0" width="250" height="250" rx="125"></rect>
            <g id="Group" transform="translate(25.000000, 31.000000)">
                <path d="M78.193977,6.90737686 C77.608977,3.45197686 82.472977,2.05537686 83.809977,5.29487686 L86.416977,11.6116769 C86.497977,11.8072769 86.559977,12.0053769 86.602977,12.2041769 C92.854977,10.6968769 99.152977,9.93767686 105.388977,9.87887686 C105.382977,9.67417686 105.393977,9.46577686 105.424977,9.25517686 L106.419977,2.51127686 C106.930977,-0.955723135 111.988977,-0.780723135 112.259977,2.71337686 L112.785977,9.50987686 C112.801977,9.72287686 112.798977,9.93237686 112.778977,10.1367769 C119.120977,10.6398769 125.352977,11.8626769 131.358977,13.7528769 C131.416977,13.5564769 131.492977,13.3618769 131.586977,13.1711769 L134.622977,7.05277686 C136.179977,3.91337686 140.936977,5.64287686 140.113977,9.04957686 L138.510977,15.6889769 C138.460977,15.8958769 138.393977,16.0934769 138.311977,16.2809769 C144.147977,18.6969769 149.709977,21.7657769 154.878977,25.4345769 C154.991977,25.2714769 155.119977,25.1153769 155.263977,24.9681769 L160.041977,20.0871769 C162.492977,17.5826769 166.482977,20.6974769 164.647977,23.6832769 L161.071977,29.5019769 C160.965977,29.6740769 160.847977,29.8333769 160.719977,29.9798769 C165.971977,34.4520769 170.709977,39.6047769 174.783977,45.3707769 C174.773977,44.8157769 174.769977,44.2646769 174.766977,43.7229769 L174.766977,43.7207769 L174.766977,43.6246769 C174.754977,40.8596769 177.254977,38.7342769 180.087977,38.3380769 C181.441977,38.1584769 182.817977,38.4331769 183.998977,39.1190769 C185.180977,39.8050769 186.100977,40.8636769 186.615977,42.1288769 C188.228977,46.2311769 188.500977,50.7385769 187.393977,55.0051769 C187.302977,55.3899769 187.196977,55.7745769 187.075977,56.2104769 L187.075977,56.2107769 L187.075977,56.2109769 L187.075977,56.2127769 L187.072977,56.2229769 C187.044977,56.3251769 187.015977,56.4301769 186.985977,56.5385769 L186.932977,56.7335769 C191.073977,59.0678769 194.320977,62.7134769 196.162977,67.0961769 C197.642977,70.6249769 196.238977,74.2299769 192.977977,75.6609769 C191.296977,76.3829769 189.651977,76.1929769 188.144977,75.4039769 C189.476977,81.2699769 190.153977,87.1709769 190.213977,93.0179769 C190.388977,93.0179769 190.565977,93.0299769 190.744977,93.0559769 L197.487977,94.0509769 C200.955977,94.5619769 200.780977,99.6199769 197.285977,99.8909769 L190.490977,100.415977 C190.311977,100.429977 190.135977,100.430977 189.962977,100.418977 C189.463977,106.768977 188.244977,113.009977 186.354977,119.023977 C186.514977,119.076977 186.673977,119.140977 186.828977,119.217977 L192.946977,122.253977 C196.085977,123.810977 194.356977,128.567977 190.949977,127.744977 L184.311977,126.141977 C184.143977,126.101977 183.981977,126.049977 183.826977,125.987977 C181.409977,131.833977 178.337977,137.403977 174.664977,142.581977 C174.791977,142.675977 174.914977,142.780977 175.031977,142.895977 L179.912977,147.672977 C182.416977,150.123977 179.301977,154.113977 176.316977,152.278977 L170.498977,148.702977 C170.362977,148.618977 170.233977,148.527977 170.113977,148.429977 C166.042977,153.211977 161.407977,157.565977 156.259977,161.381977 C156.347977,161.507977 156.428977,161.640977 156.501977,161.780977 L159.660977,167.819977 C161.285977,170.925977 157.089977,173.756977 154.817977,171.088977 L150.397977,165.900977 C150.294977,165.779977 150.201977,165.653977 150.117977,165.523977 C145.768977,168.184977 141.113977,170.485977 136.178977,172.371977 C135.098977,172.783977 134.014977,173.172977 132.928977,173.538977 C132.972977,173.683977 133.007977,173.832977 133.033977,173.986977 L134.174977,180.722977 C134.759977,184.178977 129.895977,185.574977 128.558977,182.335977 L125.951977,176.019977 C125.893977,175.878977 125.845977,175.735977 125.806977,175.592977 C119.541977,177.105977 113.229977,177.866977 106.980977,177.924977 C106.977977,178.073977 106.965977,178.224977 106.942977,178.376977 L105.948977,185.118977 C105.437977,188.585977 100.379977,188.410977 100.108977,184.916977 L99.582977,178.121977 C99.570977,177.967977 99.569977,177.814977 99.576977,177.663977 C93.221977,177.157977 86.977977,175.928977 80.960977,174.029977 C80.910977,174.174977 80.850977,174.318977 80.780977,174.460977 L77.745977,180.577977 C76.188977,183.716977 71.431877,181.987977 72.254477,178.580977 L73.857377,171.942977 C73.895077,171.786977 73.942377,171.635977 73.998577,171.490977 C68.155077,169.064977 62.587177,165.984977 57.413577,162.301977 C57.319877,162.426977 57.216677,162.547977 57.103777,162.663977 L52.326877,167.543977 C49.875477,170.047977 45.886077,166.932977 47.721077,163.946977 L51.296677,158.129977 C51.380977,157.992977 51.472877,157.863977 51.571477,157.742977 C46.797777,153.665977 42.450577,149.024977 38.643177,143.872977 C38.510077,143.967977 38.368577,144.054977 38.218877,144.132977 L32.179577,147.291977 C29.074177,148.916977 26.242577,144.720977 28.910477,142.448977 L34.098777,138.028977 C34.230877,137.916977 34.368577,137.815977 34.510677,137.726977 C32.426977,134.309977 30.565177,130.704977 28.951877,126.923977 L17.124777,142.602977 C15.803177,144.354977 13.228977,144.542977 11.824777,142.856977 C0.386176954,129.116977 -0.828523046,110.622977 0.366676954,99.7249769 C0.615176954,97.4589769 2.99387695,96.2049769 5.09467695,97.0909769 L22.852477,104.582977 C22.422877,101.251977 22.197877,97.9239769 22.170277,94.6119769 C21.990377,94.6139769 21.807777,94.6019769 21.623377,94.5739769 L14.880377,93.5799769 C11.413277,93.0689769 11.588277,88.0109769 15.082477,87.7399769 L21.878077,87.2139769 C22.067577,87.1999769 22.254177,87.1999769 22.436977,87.2149769 C22.947977,80.8689769 24.179277,74.6349769 26.078677,68.6272769 C25.896777,68.5715769 25.716577,68.5001769 25.539677,68.4123769 L19.421877,65.3770769 C16.282377,63.8194769 18.011977,59.0628769 21.418677,59.8854769 L28.057477,61.4884769 C28.252677,61.5356769 28.439677,61.5978769 28.617677,61.6736769 C31.042177,55.8399769 34.119477,50.2814769 37.796577,45.1159769 C37.635977,45.0042769 37.482177,44.8775769 37.336977,44.7354769 L32.456177,39.9578769 C29.951777,37.5063769 33.066577,33.5169769 36.052277,35.3520769 L41.870877,38.9281769 C42.043577,39.0342769 42.203477,39.1524769 42.350377,39.2810769 C46.421277,34.5141769 51.053677,30.1725769 56.197277,26.3689769 C56.074777,26.2091769 55.964077,26.0362769 55.866977,25.8507769 L52.707577,19.8105769 C51.083277,16.7051769 55.278377,13.8734769 57.550977,16.5413769 L61.971177,21.7305769 C62.109177,21.8925769 62.229577,22.0629769 62.332777,22.2396769 C66.663777,19.5956769 71.296677,17.3083769 76.206977,15.4318769 C77.298977,15.0144769 78.394977,14.6213769 79.492977,14.2523769 C79.423977,14.0588769 79.370977,13.8562769 79.334977,13.6455769 L78.193977,6.90737686 Z M157.425977,78.1949769 C163.848977,75.8409769 169.347977,72.3069769 173.901977,68.4216769 C187.917977,105.656977 169.224977,147.261977 132.016977,161.479977 C94.694977,175.741977 52.877077,157.046977 38.614777,119.724977 C36.645677,114.570977 35.304777,109.332977 34.554277,104.092977 C45.406177,97.8949769 57.337977,92.5659769 70.133077,89.2789769 C77.054977,87.5009769 82.973977,86.7759769 88.482977,86.5469769 L87.405977,107.717977 C95.863977,106.502977 113.344977,100.604977 123.628977,86.4669769 C132.672977,85.5809769 143.389977,83.3399769 157.425977,78.1949769 Z M57.053677,121.553977 C53.587777,122.169977 50.278177,119.860977 49.661377,116.394977 C49.044677,112.928977 51.354277,109.618977 54.820177,109.001977 C58.285977,108.385977 61.595577,110.694977 62.212377,114.160977 C62.829077,117.626977 60.519477,120.936977 57.053677,121.553977 Z M86.437977,122.323977 C84.175977,122.725977 82.015977,121.218977 81.612977,118.956977 C81.210977,116.694977 82.717977,114.534977 84.979977,114.131977 C87.241977,113.729977 89.401977,115.236977 89.804977,117.498977 C90.206977,119.760977 88.699977,121.920977 86.437977,122.323977 Z M123.750977,120.860977 C121.488977,121.262977 119.328977,119.755977 118.926977,117.493977 C118.523977,115.231977 120.031977,113.071977 122.293977,112.668977 C124.555977,112.266977 126.715977,113.773977 127.117977,116.035977 C127.520977,118.297977 126.012977,120.457977 123.750977,120.860977 Z M131.522977,140.794977 C131.925977,143.056977 134.085977,144.563977 136.347977,144.161977 C138.609977,143.758977 140.116977,141.598977 139.714977,139.336977 C139.311977,137.074977 137.151977,135.567977 134.889977,135.969977 C132.627977,136.372977 131.120977,138.532977 131.522977,140.794977 Z M87.915977,150.947977 C85.653977,151.349977 83.493977,149.842977 83.090977,147.580977 C82.688977,145.318977 84.195977,143.158977 86.457977,142.755977 C88.719977,142.353977 90.879977,143.860977 91.282977,146.122977 C91.685977,148.384977 90.177977,150.544977 87.915977,150.947977 Z M65.464177,133.364977 C65.866777,135.626977 68.026777,137.134977 70.288877,136.731977 C72.550877,136.328977 74.058277,134.168977 73.655777,131.906977 C73.253177,129.644977 71.093177,128.137977 68.831077,128.539977 C66.569077,128.942977 65.061677,131.102977 65.464177,133.364977 Z M106.082977,134.701977 C103.820977,135.103977 101.660977,133.596977 101.258977,131.334977 C100.855977,129.072977 102.363977,126.912977 104.625977,126.509977 C106.887977,126.107977 109.047977,127.614977 109.449977,129.876977 C109.852977,132.138977 108.344977,134.298977 106.082977,134.701977 Z M141.596977,117.686977 C142.212977,121.152977 145.522977,123.461977 148.988977,122.845977 C152.454977,122.228977 154.763977,118.918977 154.146977,115.452977 C153.530977,111.986977 150.220977,109.677977 146.754977,110.293977 C143.288977,110.910977 140.979977,114.220977 141.596977,117.686977 Z M105.914977,149.993977 C106.531977,153.459977 109.840977,155.769977 113.306977,155.152977 C116.772977,154.535977 119.082977,151.226977 118.465977,147.760977 C117.848977,144.294977 114.538977,141.984977 111.073977,142.601977 C107.607977,143.218977 105.297977,146.527977 105.914977,149.993977 Z M154.652977,52.1906769 C155.928977,57.7955769 152.619977,63.3275769 147.263977,64.5466769 C141.906977,65.7658769 136.530977,62.2105769 135.254977,56.6056769 C133.978977,51.0008769 137.287977,45.4688769 142.643977,44.2496769 C148.000977,43.0305769 153.376977,46.5858769 154.652977,52.1906769 Z" id="Shape" fill="url(#linearGradient-1)"></path>
                <path d="M147.669977,59.6768769 C150.081977,59.1277769 151.523977,56.4258769 150.889977,53.6419769 C150.256977,50.8581769 147.786977,49.0464769 145.374977,49.5955769 C142.962977,50.1446769 141.519977,52.8465769 142.153977,55.6304769 C142.787977,58.4142769 145.256977,60.2259769 147.669977,59.6768769 Z" id="Path" fill="#4A98EA" fill-rule="nonzero"></path>
            </g>
        </g>
    </g>
</svg>