<?xml version="1.0" encoding="UTF-8"?>
<svg width="20px" height="20px" viewBox="0 0 20 20" version="1.1" xmlns="http://www.w3.org/2000/svg" xmlns:xlink="http://www.w3.org/1999/xlink">
    <title>verified</title>
    <g id="Page-1" stroke="none" stroke-width="1" fill="none" fill-rule="evenodd">
        <g id="verified" transform="translate(0.604000, 0.604000)" fill="#1D9BF0" fill-rule="nonzero">
            <path d="M18.792,9.396 C18.774,8.75 18.577,8.121 18.222,7.58 C17.868,7.04 17.37,6.608 16.784,6.334 C17.007,5.727 17.054,5.07 16.924,4.437 C16.793,3.803 16.487,3.219 16.042,2.75 C15.572,2.305 14.989,2 14.355,1.868 C13.722,1.738 13.065,1.785 12.458,2.008 C12.185,1.421 11.754,0.922 11.213,0.568 C10.672,0.214 10.043,0.016 9.396,8.8817842e-16 C8.75,0.017 8.123,0.213 7.583,0.568 C7.043,0.923 6.614,1.422 6.343,2.008 C5.735,1.785 5.076,1.736 4.441,1.868 C3.806,1.998 3.221,2.304 2.751,2.75 C2.306,3.22 2.002,3.805 1.873,4.438 C1.743,5.071 1.793,5.728 2.017,6.334 C1.43,6.608 0.93,7.039 0.574,7.579 C0.218,8.119 0.019,8.749 -4.4408921e-16,9.396 C0.02,10.043 0.218,10.672 0.574,11.213 C0.93,11.753 1.43,12.185 2.017,12.458 C1.793,13.064 1.743,13.721 1.873,14.354 C2.003,14.988 2.306,15.572 2.75,16.042 C3.22,16.485 3.804,16.789 4.437,16.92 C5.07,17.052 5.727,17.004 6.334,16.784 C6.608,17.37 7.039,17.868 7.58,18.223 C8.12,18.577 8.75,18.774 9.396,18.792 C10.043,18.776 10.672,18.579 11.213,18.225 C11.754,17.871 12.185,17.371 12.458,16.785 C13.062,17.024 13.724,17.081 14.361,16.949 C14.997,16.817 15.581,16.502 16.041,16.042 C16.501,15.582 16.817,14.998 16.949,14.361 C17.081,13.724 17.024,13.062 16.784,12.458 C17.37,12.184 17.868,11.753 18.223,11.212 C18.577,10.672 18.774,10.042 18.792,9.396 L18.792,9.396 Z M8.058,13.246 L4.629,9.818 L5.922,8.516 L7.994,10.588 L12.394,5.794 L13.741,7.04 L8.058,13.246 Z" id="Shape"></path>
        </g>
    </g>
</svg>