<svg width="635" height="635" viewBox="0 0 635 635" fill="none" xmlns="http://www.w3.org/2000/svg">
<g filter="url(#filter0_d_352_1787)">
<circle cx="312.51" cy="310.804" r="275" fill="url(#paint0_linear_352_1787)"/>
</g>
<circle cx="312.51" cy="310.804" r="291.92" stroke="#DFECFF" stroke-width="2"/>
<path d="M108.501 402L150.685 363L192.685 339L398.001 363L432.185 406.5C388.685 437.5 300.351 501.557 292.685 506.5C279.501 515 267.334 505.333 262.501 503C214.834 475.5 119.701 425.1 108.501 417.5C101.817 412.964 105.501 405.5 108.501 402Z" fill="#D9D9D9"/>
<path d="M108.501 402L150.685 363L192.685 339L398.001 363L432.185 406.5C388.685 437.5 300.351 501.557 292.685 506.5C279.501 515 267.334 505.333 262.501 503C214.834 475.5 119.701 425.1 108.501 417.5C101.817 412.964 105.501 405.5 108.501 402Z" fill="black"/>
<path d="M108.501 402L150.685 363L192.685 339L398.001 363L432.185 406.5C388.685 437.5 300.351 501.557 292.685 506.5C279.501 515 267.334 505.333 262.501 503C214.834 475.5 119.701 425.1 108.501 417.5C101.817 412.964 105.501 405.5 108.501 402Z" stroke="black"/>
<rect width="188.441" height="99.9591" rx="15" transform="matrix(0.857227 -0.514939 0.874564 0.48491 287.41 487.101)" fill="black"/>
<mask id="path-5-inside-1_352_1787" fill="white">
<path fill-rule="evenodd" clip-rule="evenodd" d="M127.771 381.54C124.596 387.37 127.047 393.932 135.076 398.383L258.265 466.687C269.636 472.992 287.89 472.675 299.036 465.98L419.783 393.446C428.085 388.459 430.102 381.34 425.892 375.427V312.548L319.828 314.712L296.186 301.604C284.814 295.299 266.561 295.616 255.415 302.311L231.778 316.509L142.017 318.341L127.771 319.483V381.54Z"/>
</mask>
<path fill-rule="evenodd" clip-rule="evenodd" d="M127.771 381.54C124.596 387.37 127.047 393.932 135.076 398.383L258.265 466.687C269.636 472.992 287.89 472.675 299.036 465.98L419.783 393.446C428.085 388.459 430.102 381.34 425.892 375.427V312.548L319.828 314.712L296.186 301.604C284.814 295.299 266.561 295.616 255.415 302.311L231.778 316.509L142.017 318.341L127.771 319.483V381.54Z" fill="#5945FE"/>
<path d="M135.076 398.383L134.695 399.069L135.076 398.383ZM127.771 381.54L128.461 381.915L128.556 381.74V381.54H127.771ZM258.265 466.687L258.646 466L258.265 466.687ZM299.036 465.98L298.632 465.307L299.036 465.98ZM419.783 393.446L420.187 394.119H420.187L419.783 393.446ZM425.892 375.427H425.107V375.677L425.253 375.882L425.892 375.427ZM425.892 312.548H426.677V311.747L425.876 311.763L425.892 312.548ZM319.828 314.712L319.447 315.399L319.632 315.501L319.844 315.497L319.828 314.712ZM296.186 301.604L295.805 302.29L296.186 301.604ZM255.415 302.311L255.011 301.638L255.415 302.311ZM231.778 316.509L231.794 317.294L232.003 317.29L232.182 317.182L231.778 316.509ZM142.017 318.341L142.001 317.557L141.978 317.557L141.954 317.559L142.017 318.341ZM127.771 319.483L127.709 318.701L126.987 318.759V319.483H127.771ZM135.456 397.697C131.548 395.53 129.079 392.894 127.947 390.177C126.822 387.48 126.982 384.63 128.461 381.915L127.082 381.165C125.386 384.279 125.183 387.626 126.498 390.78C127.804 393.914 130.575 396.785 134.695 399.069L135.456 397.697ZM258.646 466L135.456 397.697L134.695 399.069L257.885 467.373L258.646 466ZM298.632 465.307C293.205 468.567 285.998 470.297 278.721 470.424C271.445 470.55 264.182 469.07 258.646 466L257.885 467.373C263.719 470.608 271.269 472.123 278.749 471.993C286.228 471.863 293.721 470.088 299.44 466.652L298.632 465.307ZM419.379 392.774L298.632 465.307L299.44 466.652L420.187 394.119L419.379 392.774ZM425.253 375.882C427.226 378.654 427.716 381.657 426.783 384.543C425.842 387.453 423.421 390.346 419.379 392.774L420.187 394.119C424.447 391.56 427.185 388.4 428.276 385.025C429.375 381.627 428.767 378.112 426.531 374.971L425.253 375.882ZM425.107 312.548V375.427H426.677V312.548H425.107ZM319.844 315.497L425.908 313.332L425.876 311.763L319.812 313.928L319.844 315.497ZM295.805 302.29L319.447 315.399L320.208 314.026L296.566 300.918L295.805 302.29ZM255.819 302.984C261.246 299.723 268.452 297.993 275.729 297.867C283.006 297.741 290.268 299.22 295.805 302.29L296.566 300.918C290.732 297.683 283.181 296.168 275.702 296.298C268.223 296.427 260.73 298.203 255.011 301.638L255.819 302.984ZM232.182 317.182L255.819 302.984L255.011 301.638L231.374 315.837L232.182 317.182ZM142.033 319.126L231.794 317.294L231.762 315.725L142.001 317.557L142.033 319.126ZM127.834 320.265L142.08 319.124L141.954 317.559L127.709 318.701L127.834 320.265ZM128.556 381.54V319.483H126.987V381.54H128.556Z" fill="black" mask="url(#path-5-inside-1_352_1787)"/>
<rect x="0.679511" y="-0.0117827" width="187.158" height="187.158" rx="23.1501" transform="matrix(0.857227 -0.514939 0.874564 0.48491 114.594 318.536)" fill="url(#paint1_linear_352_1787)" stroke="black" stroke-width="0.78475"/>
<rect x="0.679511" y="-0.0117827" width="187.158" height="187.158" rx="23.1501" transform="matrix(0.857227 -0.514939 0.874564 0.48491 114.594 318.536)" fill="#A9F801" stroke="black" stroke-width="0.78475"/>
<path d="M165.988 317.411L163.15 309.507L166.06 307.572L169.452 318.461L174.317 322.862L171.663 324.627L166.798 320.226L153.44 315.964L156.36 314.022L165.988 317.411ZM183.344 316.86L180.811 318.544L170.972 309.644L173.504 307.96L183.344 316.86ZM168.235 307.425C167.89 307.112 167.731 306.771 167.758 306.4C167.78 306.024 168.015 305.687 168.465 305.388C168.914 305.09 169.383 304.959 169.872 304.995C170.355 305.026 170.769 305.198 171.115 305.51C171.454 305.817 171.61 306.161 171.582 306.541C171.547 306.916 171.305 307.253 170.856 307.552C170.407 307.85 169.944 307.982 169.468 307.947C168.986 307.906 168.575 307.732 168.235 307.425ZM191.092 311.994C189.996 312.723 188.84 313.162 187.626 313.314C186.405 313.459 185.222 313.351 184.078 312.989C182.928 312.622 181.907 312.035 181.016 311.229L180.643 310.892C179.619 309.965 178.945 309.014 178.623 308.039C178.295 307.058 178.299 306.128 178.637 305.247C178.981 304.362 179.633 303.6 180.593 302.962C181.655 302.256 182.742 301.856 183.856 301.763C184.963 301.664 186.054 301.828 187.128 302.255C188.197 302.677 189.207 303.319 190.159 304.179L191.132 305.06L182.586 310.742L180.958 309.27L187.003 305.251L186.83 305.094C186.434 304.758 185.995 304.489 185.512 304.287C185.029 304.085 184.521 303.999 183.988 304.03C183.462 304.056 182.93 304.248 182.392 304.605C181.854 304.963 181.538 305.387 181.443 305.879C181.342 306.364 181.442 306.893 181.743 307.463C182.037 308.029 182.515 308.61 183.175 309.208L183.548 309.545C184.106 310.05 184.722 310.425 185.396 310.672C186.07 310.918 186.758 311.012 187.462 310.954C188.159 310.89 188.813 310.654 189.426 310.247C190.018 309.853 190.439 309.411 190.689 308.922C190.946 308.428 191.047 307.894 190.993 307.321L193.502 307.508C193.622 308.161 193.522 308.894 193.203 309.705C192.885 310.507 192.181 311.27 191.092 311.994ZM199.946 305.821L197.414 307.505L183.446 294.871L185.979 293.187L199.946 305.821ZM195.362 286.948L197.895 285.264L211.862 297.898L209.565 299.426L207.266 297.715L195.362 286.948ZM197.161 299.824C196.166 298.925 195.467 298.02 195.062 297.109C194.659 296.188 194.571 295.323 194.799 294.515C195.022 293.701 195.585 292.993 196.491 292.391C197.382 291.798 198.334 291.489 199.345 291.464C200.356 291.438 201.399 291.644 202.473 292.082C203.548 292.509 204.625 293.12 205.704 293.915L206.232 294.392C207.05 295.313 207.649 296.213 208.03 297.092C208.411 297.971 208.505 298.798 208.311 299.574C208.125 300.345 207.579 301.032 206.673 301.634C205.781 302.227 204.797 302.544 203.72 302.584C202.637 302.619 201.542 302.415 200.437 301.97C199.338 301.521 198.309 300.863 197.352 299.997L197.161 299.824ZM199.884 298.313C200.466 298.839 201.078 299.265 201.72 299.589C202.356 299.909 202.994 300.079 203.633 300.102C204.273 300.114 204.885 299.926 205.471 299.536C206.022 299.17 206.368 298.773 206.51 298.346C206.653 297.908 206.638 297.457 206.465 296.991C206.3 296.521 206.024 296.052 205.638 295.586L204.101 294.196C203.69 293.898 203.269 293.651 202.837 293.452C202.405 293.254 201.972 293.124 201.536 293.061C201.108 292.994 200.677 293.005 200.243 293.093C199.809 293.182 199.388 293.362 198.98 293.633C198.395 294.023 198.061 294.468 197.978 294.97C197.896 295.463 198.016 295.982 198.337 296.53C198.653 297.071 199.105 297.608 199.693 298.14L199.884 298.313Z" fill="black"/>
<rect y="0.554902" width="10.4962" height="10.4962" transform="matrix(-0.707107 0.707107 0.707107 0.707107 330.809 27.8537)" stroke="black" stroke-width="0.78475"/>
<path fill-rule="evenodd" clip-rule="evenodd" d="M377.718 278.706L418.216 301.161C429.587 307.466 429.77 318.005 418.624 324.7L298.971 396.576C287.826 403.271 269.572 403.588 258.201 397.283L204.138 367.307C204.922 326.838 210.112 280.855 222.155 276.826C229.627 274.327 235.469 283.28 241.726 292.869C249.056 304.102 256.955 316.207 268.711 311.799C281.357 307.057 285.772 268.604 290.397 228.328C295.492 183.96 300.841 137.378 317.727 131.21C334.366 125.131 341.547 175.062 348.074 220.453C353.685 259.465 358.813 295.123 369.049 288.981C372.711 286.784 375.531 283.205 377.718 278.706Z" fill="white"/>
<path d="M377.718 278.706L377.908 278.363L377.546 278.162L377.365 278.535L377.718 278.706ZM418.216 301.161L418.406 300.818L418.216 301.161ZM418.624 324.7L418.826 325.036L418.624 324.7ZM298.971 396.576L299.173 396.912L298.971 396.576ZM258.201 397.283L258.011 397.626L258.201 397.283ZM204.138 367.307L203.746 367.3L203.741 367.536L203.948 367.65L204.138 367.307ZM222.155 276.826L222.279 277.199L222.155 276.826ZM241.726 292.869L242.055 292.655L241.726 292.869ZM268.711 311.799L268.849 312.166L268.711 311.799ZM290.397 228.328L290.787 228.373L290.397 228.328ZM317.727 131.21L317.861 131.578L317.727 131.21ZM348.074 220.453L348.463 220.397L348.074 220.453ZM369.049 288.981L368.847 288.645L369.049 288.981ZM377.527 279.05L418.026 301.504L418.406 300.818L377.908 278.363L377.527 279.05ZM418.026 301.504C423.639 304.617 426.401 308.721 426.472 312.791C426.542 316.861 423.924 321.059 418.422 324.364L418.826 325.036C424.47 321.646 427.334 317.227 427.256 312.777C427.179 308.328 424.164 304.01 418.406 300.818L418.026 301.504ZM418.422 324.364L298.769 396.24L299.173 396.912L418.826 325.036L418.422 324.364ZM298.769 396.24C293.269 399.544 285.991 401.285 278.664 401.412C271.336 401.539 264.002 400.051 258.391 396.94L258.011 397.626C263.771 400.82 271.249 402.326 278.677 402.197C286.106 402.068 293.528 400.304 299.173 396.912L298.769 396.24ZM258.391 396.94L204.328 366.964L203.948 367.65L258.011 397.626L258.391 396.94ZM222.03 276.454C220.423 276.992 218.965 278.217 217.642 279.975C216.317 281.735 215.108 284.054 214.005 286.827C211.798 292.374 209.99 299.795 208.538 308.336C205.632 325.42 204.138 347.055 203.746 367.3L204.53 367.315C204.922 347.09 206.415 325.498 209.311 308.467C210.76 299.949 212.556 292.59 214.734 287.118C215.823 284.381 217.001 282.131 218.269 280.447C219.538 278.761 220.876 277.668 222.279 277.199L222.03 276.454ZM242.055 292.655C238.934 287.872 235.885 283.195 232.671 280.035C229.453 276.87 225.975 275.135 222.03 276.454L222.279 277.199C225.807 276.019 228.986 277.51 232.121 280.594C235.261 283.683 238.261 288.277 241.398 293.084L242.055 292.655ZM268.573 311.431C265.709 312.506 263.095 312.57 260.67 311.902C258.238 311.233 255.971 309.82 253.82 307.906C249.506 304.069 245.728 298.284 242.055 292.655L241.398 293.084C245.054 298.687 248.89 304.571 253.298 308.493C255.507 310.458 257.878 311.947 260.462 312.659C263.053 313.372 265.835 313.296 268.849 312.166L268.573 311.431ZM290.008 228.283C287.694 248.428 285.436 268.089 282.178 283.307C280.549 290.916 278.674 297.393 276.428 302.255C274.174 307.133 271.584 310.302 268.573 311.431L268.849 312.166C272.161 310.924 274.865 307.509 277.14 302.584C279.423 297.644 281.312 291.102 282.946 283.471C286.213 268.208 288.475 248.504 290.787 228.373L290.008 228.283ZM317.592 130.841C313.229 132.435 309.669 136.614 306.698 142.572C303.722 148.541 301.303 156.364 299.258 165.357C295.167 183.345 292.554 206.106 290.008 228.283L290.787 228.373C293.335 206.182 295.944 183.468 300.023 165.531C302.063 156.562 304.465 148.809 307.401 142.923C310.341 137.025 313.782 133.068 317.861 131.578L317.592 130.841ZM348.463 220.397C345.2 197.71 341.77 173.853 337.071 156.428C334.724 147.721 332.049 140.577 328.894 135.984C327.315 133.686 325.597 131.997 323.711 131.084C321.811 130.164 319.769 130.046 317.592 130.841L317.861 131.578C319.845 130.853 321.667 130.966 323.369 131.79C325.087 132.622 326.71 134.191 328.247 136.428C331.323 140.906 333.97 147.942 336.314 156.632C340.997 174.001 344.421 197.805 347.686 220.509L348.463 220.397ZM368.847 288.645C367.656 289.36 366.586 289.446 365.588 289.037C364.564 288.618 363.556 287.652 362.571 286.137C360.602 283.107 358.838 278.063 357.207 271.555C353.951 258.556 351.269 239.912 348.463 220.397L347.686 220.509C350.49 240.007 353.177 258.698 356.446 271.745C358.079 278.261 359.867 283.417 361.913 286.565C362.936 288.138 364.053 289.256 365.29 289.763C366.554 290.281 367.883 290.138 369.251 289.318L368.847 288.645ZM377.365 278.535C375.199 282.991 372.423 286.499 368.847 288.645L369.251 289.318C372.999 287.069 375.864 283.419 378.071 278.878L377.365 278.535Z" fill="black"/>
<path d="M238.272 385.936L309.61 345.118L401.873 291.821" stroke="black" stroke-width="0.78475"/>
<circle cx="491.889" cy="160.229" r="9.32888" stroke="black" stroke-width="0.78475"/>
<circle cx="409.003" cy="201.475" r="6.59277" stroke="black" stroke-width="0.78475"/>
<path d="M325.083 128.612C325.083 130.581 324.5 132.348 323.575 133.613C322.651 134.879 321.407 135.62 320.07 135.62C318.733 135.62 317.489 134.879 316.564 133.613C315.64 132.348 315.056 130.581 315.056 128.612C315.056 126.643 315.64 124.876 316.564 123.611C317.489 122.346 318.733 121.605 320.07 121.605C321.407 121.605 322.651 122.346 323.575 123.611C324.5 124.876 325.083 126.643 325.083 128.612Z" fill="#D1F801" stroke="black" stroke-width="0.78475"/>
<path d="M235.033 384.202V283.498" stroke="black" stroke-width="0.78475"/>
<path d="M277.227 303.269L277.227 363.738L317.354 385.474" stroke="black" stroke-width="0.78475"/>
<path d="M320.971 136.012V338.186L361.519 359.113" stroke="black" stroke-width="0.78475"/>
<path d="M368.688 289.51L368.687 310.784L406.611 331.826" stroke="black" stroke-width="0.78475"/>
<path fill-rule="evenodd" clip-rule="evenodd" d="M282.361 402.238V469.801C289.838 469.21 297.075 467.207 302.754 463.814L416.913 395.613C423.225 391.842 426.471 387.037 426.671 382.237H426.681V317.972C425.359 320.401 423.061 322.702 419.783 324.671L299.036 397.204C294.378 400.002 288.48 401.686 282.361 402.238Z" fill="#C2C8CF"/>
<path d="M274.805 400.583V469.029" stroke="black" stroke-width="0.78475"/>
<path d="M515.556 378.642L334.414 434.274V481.742L334.417 481.743C334.452 484.776 336.5 487.777 340.548 490.022L364.977 503.566C373.038 508.036 385.978 507.811 393.879 503.065L509.788 433.439C514.125 430.833 516.042 427.407 515.556 424.107V378.642Z" fill="#C2C8CF"/>
<mask id="path-24-inside-2_352_1787" fill="white">
<path fill-rule="evenodd" clip-rule="evenodd" d="M377.795 506.761V420.95L334.414 434.274V481.742L334.417 481.743C334.452 484.776 336.5 487.777 340.548 490.022L364.977 503.566C368.572 505.56 373.138 506.619 377.795 506.761Z"/>
</mask>
<path fill-rule="evenodd" clip-rule="evenodd" d="M377.795 506.761V420.95L334.414 434.274V481.742L334.417 481.743C334.452 484.776 336.5 487.777 340.548 490.022L364.977 503.566C368.572 505.56 373.138 506.619 377.795 506.761Z" fill="#5945FE"/>
<path d="M377.795 420.95H378.795V419.597L377.502 419.995L377.795 420.95ZM377.795 506.761L377.765 507.76L378.795 507.791V506.761H377.795ZM334.414 434.274L334.121 433.318L333.414 433.535V434.274H334.414ZM334.414 481.742H333.414V482.311L333.903 482.601L334.414 481.742ZM334.417 481.743L335.417 481.732L335.41 481.17L334.928 480.884L334.417 481.743ZM340.548 490.022L340.063 490.896H340.063L340.548 490.022ZM364.977 503.566L365.462 502.692L364.977 503.566ZM376.795 420.95V506.761H378.795V420.95H376.795ZM377.502 419.995L334.121 433.318L334.708 435.229L378.089 421.906L377.502 419.995ZM333.414 434.274V481.742H335.414V434.274H333.414ZM333.903 482.601L333.906 482.603L334.928 480.884L334.925 480.882L333.903 482.601ZM333.417 481.755C333.458 485.274 335.831 488.549 340.063 490.896L341.033 489.147C337.17 487.005 335.447 484.278 335.417 481.732L333.417 481.755ZM340.063 490.896L364.492 504.441L365.462 502.692L341.033 489.147L340.063 490.896ZM364.492 504.441C368.259 506.529 372.99 507.615 377.765 507.76L377.825 505.761C373.287 505.624 368.886 504.59 365.462 502.692L364.492 504.441Z" fill="black" mask="url(#path-24-inside-2_352_1787)"/>
<rect x="0.679511" y="-0.0117827" width="167.807" height="60.5265" rx="14.6076" transform="matrix(0.857227 -0.514939 0.874564 0.48491 326.058 434.429)" fill="white" stroke="black" stroke-width="0.78475"/>
<circle cx="20.8156" cy="20.8156" r="20.8156" transform="matrix(0.867479 -0.497473 0.854667 0.519177 348.852 428.691)" fill="#A9F801"/>
<path d="M392.757 428.897C392.357 428.654 391.926 428.495 391.464 428.419C391.01 428.338 390.42 428.357 389.695 428.476C388.97 428.594 388.015 428.831 386.832 429.186C385.835 429.478 384.858 429.723 383.901 429.922C382.943 430.122 382.016 430.247 381.12 430.297C380.224 430.339 379.37 430.282 378.558 430.126C377.754 429.966 377.008 429.677 376.319 429.259C375.423 428.714 374.894 428.091 374.731 427.388C374.568 426.686 374.745 425.963 375.262 425.221C375.786 424.474 376.635 423.764 377.807 423.092C379.033 422.389 380.311 421.914 381.643 421.667C382.974 421.41 384.258 421.369 385.495 421.543C386.732 421.717 387.828 422.095 388.783 422.675L385.558 424.524C385.077 424.232 384.553 424.034 383.987 423.93C383.414 423.821 382.813 423.825 382.185 423.94C381.564 424.051 380.934 424.29 380.295 424.656C379.686 425.006 379.268 425.351 379.04 425.691C378.804 426.028 378.74 426.344 378.849 426.641C378.949 426.933 379.185 427.191 379.555 427.416C379.926 427.641 380.375 427.768 380.905 427.796C381.442 427.821 382.073 427.765 382.799 427.629C383.525 427.484 384.359 427.267 385.303 426.98C386.869 426.501 388.291 426.176 389.569 426.002C390.848 425.829 392.016 425.824 393.073 425.987C394.124 426.146 395.089 426.493 395.971 427.028C396.897 427.59 397.452 428.216 397.637 428.906C397.815 429.591 397.639 430.296 397.107 431.021C396.576 431.745 395.708 432.452 394.506 433.142C393.701 433.603 392.805 433.995 391.815 434.318C390.826 434.631 389.798 434.841 388.729 434.946C387.661 435.043 386.609 434.999 385.574 434.814C384.539 434.629 383.57 434.262 382.666 433.713L385.902 431.857C386.406 432.163 386.911 432.377 387.417 432.498C387.93 432.614 388.448 432.654 388.971 432.616C389.487 432.575 389.999 432.469 390.509 432.299C391.011 432.125 391.506 431.897 391.995 431.617C392.611 431.264 393.034 430.925 393.262 430.602C393.49 430.27 393.557 429.96 393.464 429.673C393.363 429.381 393.127 429.122 392.757 428.897Z" fill="black"/>
<path d="M426.966 409.332C426.529 409.066 426.065 408.895 425.573 408.819C425.082 408.733 424.455 408.756 423.692 408.887C422.922 409.014 421.918 409.261 420.682 409.629C419.679 409.934 418.698 410.186 417.74 410.385C416.79 410.58 415.878 410.701 415.004 410.747C414.123 410.789 413.288 410.734 412.499 410.583C411.71 410.424 410.978 410.139 410.304 409.73C409.423 409.194 408.897 408.582 408.727 407.892C408.549 407.199 408.711 406.485 409.212 405.751C409.714 405.017 410.544 404.318 411.702 403.654C412.934 402.947 414.217 402.475 415.548 402.236C416.872 401.993 418.145 401.962 419.366 402.145C420.595 402.324 421.669 402.692 422.587 403.25L419.678 404.918C419.167 404.608 418.599 404.396 417.974 404.282C417.348 404.159 416.699 404.16 416.026 404.284C415.345 404.403 414.655 404.663 413.956 405.064C413.302 405.439 412.854 405.81 412.61 406.177C412.367 406.544 412.303 406.887 412.418 407.205C412.533 407.524 412.799 407.809 413.213 408.061C413.606 408.3 414.082 408.438 414.641 408.476C415.2 408.514 415.865 408.46 416.635 408.316C417.399 408.167 418.282 407.94 419.286 407.636C420.852 407.149 422.27 406.816 423.541 406.639C424.812 406.461 425.961 406.453 426.989 406.616C428.024 406.774 428.979 407.119 429.853 407.65C430.764 408.203 431.312 408.82 431.498 409.501C431.676 410.177 431.503 410.876 430.979 411.596C430.455 412.316 429.599 413.017 428.411 413.698C427.622 414.151 426.74 414.534 425.766 414.848C424.784 415.157 423.771 415.362 422.725 415.464C421.679 415.556 420.646 415.515 419.625 415.339C418.613 415.159 417.669 414.803 416.796 414.272L419.705 412.604C420.223 412.919 420.754 413.135 421.297 413.252C421.841 413.369 422.392 413.406 422.953 413.365C423.505 413.319 424.048 413.205 424.58 413.022C425.12 412.835 425.638 412.599 426.134 412.315C426.788 411.94 427.244 411.573 427.502 411.215C427.753 410.853 427.828 410.512 427.728 410.194C427.635 409.871 427.381 409.584 426.966 409.332Z" fill="black"/>
<path d="M437.771 404.11C438.68 403.589 439.325 403.084 439.707 402.595C440.095 402.102 440.262 401.628 440.209 401.173C440.149 400.713 439.917 400.271 439.514 399.846C439.111 399.413 438.577 398.995 437.91 398.59L435.381 397.053C434.63 396.597 433.893 396.275 433.171 396.087C432.449 395.899 431.785 395.828 431.178 395.875C430.566 395.918 430.044 396.063 429.612 396.31C429.135 396.584 428.864 396.901 428.8 397.262C428.737 397.623 428.841 397.991 429.112 398.368C429.391 398.741 429.798 399.09 430.334 399.415C430.844 399.725 431.407 399.969 432.023 400.148C432.64 400.327 433.258 400.405 433.877 400.381C434.49 400.354 435.055 400.192 435.573 399.895C435.924 399.694 436.184 399.464 436.352 399.206C436.513 398.943 436.592 398.678 436.589 398.41C436.586 398.141 436.507 397.882 436.352 397.631C436.19 397.377 435.966 397.15 435.679 396.952L436.937 396.612C437.421 396.906 437.795 397.259 438.06 397.67C438.331 398.078 438.481 398.505 438.508 398.953C438.529 399.396 438.408 399.828 438.146 400.249C437.891 400.665 437.481 401.035 436.917 401.358C435.989 401.891 434.994 402.203 433.932 402.295C432.871 402.378 431.822 402.289 430.785 402.028C429.748 401.766 428.801 401.375 427.945 400.855C427.024 400.295 426.373 399.68 425.993 399.011C425.613 398.334 425.549 397.656 425.801 396.979C426.053 396.302 426.674 395.68 427.662 395.114C428.438 394.669 429.271 394.364 430.162 394.2C431.06 394.033 431.973 393.996 432.9 394.089C433.834 394.179 434.756 394.379 435.668 394.69C436.579 394.993 437.44 395.39 438.25 395.883L439.113 396.407C439.969 396.927 440.71 397.47 441.335 398.038C441.966 398.602 442.443 399.181 442.765 399.776C443.086 400.371 443.21 400.979 443.137 401.6C443.07 402.217 442.772 402.839 442.244 403.466C441.709 404.089 440.902 404.711 439.82 405.331L439.611 405.451L437.582 404.218L437.771 404.11ZM458.934 394.266L449.174 399.863L447.498 398.845L447.166 393.074C447.121 392.436 447.039 391.908 446.919 391.49C446.806 391.069 446.645 390.725 446.438 390.458C446.224 390.187 445.96 389.956 445.647 389.766C444.987 389.365 444.262 389.144 443.472 389.103C442.683 389.054 441.946 389.226 441.263 389.617C440.732 389.922 440.399 390.248 440.263 390.596C440.127 390.936 440.165 391.277 440.378 391.618C440.591 391.959 440.953 392.284 441.463 392.594L438.995 394.009C438.159 393.5 437.586 392.926 437.278 392.284C436.97 391.643 436.979 390.986 437.303 390.314C437.628 389.641 438.307 389.009 439.342 388.415C440.801 387.578 442.285 387.148 443.793 387.124C445.302 387.101 446.66 387.456 447.869 388.19C448.47 388.556 448.932 388.989 449.255 389.491C449.578 389.992 449.805 390.549 449.935 391.161C450.06 391.769 450.134 392.425 450.158 393.129L450.337 396.892L456.983 393.081L458.934 394.266ZM464.277 384.141C465.754 385.038 466.751 385.874 467.268 386.651C467.778 387.423 467.888 388.139 467.596 388.8C467.298 389.458 466.668 390.062 465.706 390.613C464.758 391.157 463.716 391.512 462.582 391.676C461.447 391.833 460.23 391.751 458.93 391.432C457.624 391.108 456.232 390.498 454.755 389.601L452.393 388.166C450.91 387.265 449.916 386.43 449.412 385.662C448.915 384.89 448.822 384.175 449.133 383.518C449.444 382.861 450.074 382.261 451.022 381.717C451.984 381.165 453.023 380.809 454.137 380.648C455.259 380.484 456.463 380.561 457.75 380.88C459.043 381.196 460.431 381.804 461.914 382.706L464.277 384.141ZM459.084 383.9C458.15 383.333 457.315 382.931 456.581 382.697C455.853 382.458 455.196 382.364 454.609 382.415C454.022 382.458 453.48 382.623 452.983 382.908C452.499 383.186 452.208 383.499 452.112 383.847C452.015 384.188 452.155 384.579 452.532 385.019C452.908 385.459 453.563 385.963 454.498 386.53L457.566 388.394C458.5 388.962 459.341 389.367 460.089 389.61C460.843 389.849 461.524 389.948 462.13 389.909C462.73 389.866 463.272 389.706 463.756 389.428C464.253 389.143 464.544 388.826 464.627 388.477C464.704 388.125 464.544 387.726 464.148 387.282C463.752 386.838 463.087 386.332 462.152 385.764L459.084 383.9ZM475.877 377.488C477.354 378.385 478.351 379.222 478.868 379.998C479.379 380.77 479.488 381.487 479.197 382.148C478.899 382.805 478.269 383.409 477.307 383.961C476.359 384.505 475.317 384.859 474.182 385.023C473.048 385.18 471.831 385.099 470.531 384.779C469.225 384.456 467.833 383.845 466.356 382.948L463.994 381.513C462.51 380.612 461.517 379.777 461.013 379.009C460.516 378.237 460.422 377.523 460.734 376.866C461.045 376.209 461.675 375.608 462.623 375.064C463.585 374.513 464.623 374.157 465.738 373.996C466.86 373.831 468.064 373.908 469.35 374.228C470.643 374.543 472.032 375.152 473.515 376.053L475.877 377.488ZM470.685 377.248C469.751 376.68 468.916 376.279 468.182 376.044C467.454 375.805 466.796 375.712 466.21 375.763C465.623 375.806 465.081 375.97 464.584 376.255C464.099 376.533 463.809 376.846 463.712 377.195C463.616 377.536 463.756 377.926 464.132 378.366C464.509 378.806 465.164 379.31 466.099 379.878L469.167 381.742C470.101 382.309 470.942 382.714 471.69 382.957C472.444 383.196 473.124 383.296 473.731 383.257C474.33 383.214 474.872 383.054 475.356 382.776C475.854 382.491 476.144 382.174 476.228 381.825C476.305 381.472 476.145 381.073 475.749 380.629C475.353 380.185 474.688 379.679 473.753 379.111L470.685 377.248Z" fill="black"/>
<line y1="-1.17443" x2="26.5097" y2="-1.17443" transform="matrix(0.854667 0.519177 -0.867479 0.497473 374.832 422.28)" stroke="black" stroke-width="2.34885"/>
<line y1="-1.17443" x2="24.1352" y2="-1.17443" transform="matrix(0.854667 0.519177 -0.86748 0.497473 409.738 403.459)" stroke="black" stroke-width="2.34885"/>
<path d="M113.171 228.337C108.689 226.123 106.348 222.874 106.296 216.549L105.909 169.337C105.819 158.397 113.641 145.087 123.38 139.607L221.245 84.5454C227.684 80.9226 232.741 82.7478 238.656 85.326L125.078 225.881L124.366 230.782C120.794 232.792 116.357 229.715 113.171 228.337Z" fill="black"/>
<rect x="0.352344" y="0.195762" width="148.838" height="86.0842" rx="15.3026" transform="matrix(0.889785 -0.500622 0.00819171 0.999537 112.195 152.342)" fill="#D1F801" stroke="black" stroke-width="0.78475"/>
<circle cx="19.3512" cy="19.3512" r="18.9588" transform="matrix(0.922613 -0.431036 -0.0494792 1.00136 123.551 171.319)" fill="black" stroke="black" stroke-width="0.78475"/>
<path d="M141.485 176.427L140.12 177.336L140.071 174.39L141.437 173.481L141.485 176.427ZM141.572 192.539L140.207 193.449L140.162 190.752L141.528 189.842L141.572 192.539ZM142.296 186.009C142.29 185.645 142.228 185.377 142.111 185.207C142 185.026 141.821 184.921 141.574 184.89C141.328 184.853 140.997 184.883 140.581 184.978C139.834 185.133 139.178 185.208 138.612 185.203C138.046 185.191 137.602 185.007 137.282 184.65C136.962 184.293 136.794 183.677 136.78 182.801C136.766 181.972 136.921 181.144 137.244 180.318C137.568 179.485 138.027 178.703 138.621 177.972C139.215 177.241 139.905 176.614 140.691 176.09C141.494 175.556 142.198 175.274 142.804 175.247C143.409 175.219 143.882 175.447 144.222 175.932C144.567 176.407 144.748 177.138 144.764 178.127L142.211 179.828C142.198 179.051 142.053 178.568 141.775 178.377C141.497 178.18 141.138 178.228 140.697 178.522C140.374 178.736 140.113 178.984 139.912 179.266C139.71 179.548 139.564 179.846 139.472 180.163C139.38 180.479 139.336 180.793 139.342 181.105C139.347 181.423 139.402 181.668 139.508 181.839C139.614 182.003 139.793 182.102 140.045 182.136C140.297 182.169 140.642 182.143 141.081 182.059C141.817 181.918 142.465 181.859 143.025 181.881C143.592 181.9 144.035 182.087 144.355 182.444C144.681 182.797 144.852 183.408 144.866 184.278C144.88 185.14 144.72 185.992 144.385 186.832C144.05 187.665 143.58 188.445 142.975 189.17C142.369 189.889 141.659 190.519 140.845 191.062C140.319 191.412 139.797 191.679 139.28 191.862C138.762 192.039 138.289 192.083 137.858 191.994C137.434 191.901 137.089 191.634 136.824 191.193C136.565 190.742 136.428 190.065 136.413 189.163L138.975 187.457C138.983 187.914 139.04 188.265 139.147 188.509C139.254 188.747 139.394 188.902 139.566 188.975C139.739 189.041 139.931 189.044 140.141 188.984C140.357 188.914 140.578 188.804 140.805 188.653C141.144 188.427 141.426 188.169 141.65 187.879C141.873 187.589 142.037 187.286 142.14 186.968C142.249 186.641 142.301 186.321 142.296 186.009Z" fill="white"/>
<path d="M180.369 155.96L175.848 171.932L173.142 173.734L177.675 158.509L171.601 162.555L171.561 160.136L180.341 154.288L180.369 155.96ZM188.584 148.627L188.625 151.105L188.472 151.207C187.839 151.629 187.275 152.109 186.781 152.646C186.292 153.179 185.879 153.756 185.54 154.378C185.207 154.995 184.958 155.644 184.792 156.325C184.626 156.999 184.549 157.688 184.56 158.391L184.601 160.859C184.612 161.523 184.695 162.025 184.849 162.365C185.003 162.705 185.215 162.896 185.485 162.937C185.754 162.973 186.064 162.874 186.415 162.64C186.76 162.41 187.057 162.101 187.308 161.713C187.559 161.324 187.752 160.891 187.887 160.412C188.022 159.933 188.086 159.451 188.078 158.967C188.069 158.462 187.988 158.07 187.835 157.79C187.687 157.499 187.482 157.334 187.218 157.295C186.954 157.249 186.641 157.347 186.279 157.588C185.9 157.841 185.574 158.159 185.3 158.542C185.027 158.926 184.816 159.321 184.668 159.728C184.521 160.135 184.444 160.505 184.438 160.837L183.672 160.683C183.681 160.201 183.764 159.683 183.921 159.129C184.077 158.575 184.3 158.021 184.588 157.467C184.882 156.909 185.233 156.387 185.642 155.899C186.052 155.412 186.517 154.995 187.037 154.649C187.812 154.133 188.463 153.927 188.991 154.031C189.518 154.13 189.918 154.467 190.191 155.043C190.469 155.609 190.616 156.347 190.631 157.256C190.646 158.191 190.485 159.154 190.147 160.144C189.814 161.124 189.338 162.041 188.717 162.897C188.097 163.753 187.362 164.464 186.514 165.029C185.853 165.47 185.251 165.73 184.709 165.809C184.167 165.888 183.697 165.805 183.298 165.561C182.905 165.306 182.598 164.894 182.377 164.323C182.156 163.746 182.038 163.023 182.024 162.153L182.005 161.029C181.986 159.848 182.115 158.675 182.393 157.51C182.671 156.339 183.078 155.222 183.615 154.16C184.158 153.088 184.816 152.103 185.59 151.205C186.364 150.3 187.238 149.524 188.211 148.876L188.584 148.627ZM194.613 158.951C194.625 159.72 194.477 160.597 194.167 161.582C193.858 162.566 193.461 163.468 192.977 164.286L191.641 164.372C191.771 163.983 191.902 163.587 192.033 163.185C192.169 162.785 192.279 162.366 192.363 161.928C192.448 161.49 192.486 161.028 192.478 160.544L192.442 158.364L194.588 156.935L194.613 158.951ZM204.735 146.644C204.759 148.084 204.603 149.375 204.267 150.518C203.932 151.66 203.451 152.658 202.825 153.511C202.204 154.361 201.478 155.062 200.647 155.616C199.815 156.17 199.077 156.444 198.43 156.438C197.79 156.429 197.284 156.088 196.913 155.416C196.547 154.741 196.352 153.683 196.328 152.244L196.286 149.696C196.262 148.249 196.418 146.958 196.754 145.822C197.089 144.686 197.57 143.695 198.197 142.848C198.823 141.995 199.552 141.292 200.383 140.738C201.214 140.185 201.947 139.914 202.582 139.927C203.223 139.93 203.729 140.264 204.1 140.929C204.471 141.594 204.669 142.65 204.693 144.096L204.735 146.644ZM202.115 145.39C202.102 144.561 202.026 143.951 201.888 143.56C201.75 143.162 201.557 142.941 201.311 142.898C201.064 142.847 200.768 142.937 200.423 143.167C200.078 143.396 199.783 143.7 199.538 144.078C199.298 144.446 199.117 144.915 198.995 145.486C198.879 146.047 198.827 146.742 198.841 147.571L198.897 150.935C198.911 151.771 198.987 152.392 199.125 152.796C199.263 153.2 199.458 153.426 199.711 153.472C199.963 153.519 200.262 153.427 200.607 153.198C200.952 152.968 201.241 152.668 201.475 152.297C201.715 151.923 201.893 151.449 202.009 150.875C202.131 150.297 202.185 149.59 202.171 148.754L202.115 145.39ZM214.728 139.989C214.752 141.428 214.596 142.72 214.26 143.862C213.925 145.005 213.444 146.003 212.817 146.856C212.197 147.705 211.471 148.407 210.64 148.96C209.808 149.514 209.07 149.788 208.423 149.782C207.783 149.773 207.277 149.432 206.905 148.761C206.54 148.085 206.345 147.028 206.321 145.588L206.279 143.04C206.255 141.593 206.411 140.302 206.746 139.166C207.082 138.03 207.563 137.039 208.19 136.193C208.816 135.34 209.545 134.636 210.376 134.082C211.207 133.529 211.94 133.259 212.575 133.272C213.216 133.274 213.721 133.608 214.093 134.273C214.464 134.939 214.662 135.994 214.685 137.441L214.728 139.989ZM212.108 138.735C212.094 137.905 212.019 137.295 211.881 136.904C211.743 136.506 211.55 136.286 211.304 136.242C211.057 136.191 210.761 136.281 210.416 136.511C210.071 136.741 209.776 137.045 209.531 137.423C209.291 137.79 209.11 138.26 208.988 138.831C208.871 139.391 208.82 140.086 208.834 140.916L208.89 144.28C208.903 145.116 208.979 145.736 209.118 146.14C209.256 146.545 209.451 146.77 209.704 146.817C209.956 146.863 210.255 146.772 210.6 146.542C210.944 146.312 211.234 146.012 211.468 145.641C211.708 145.267 211.886 144.793 212.002 144.219C212.124 143.642 212.178 142.935 212.164 142.099L212.108 138.735ZM224.721 133.333C224.744 134.773 224.589 136.064 224.253 137.206C223.917 138.349 223.437 139.347 222.81 140.2C222.19 141.049 221.464 141.751 220.632 142.305C219.801 142.858 219.062 143.132 218.416 143.127C217.776 143.117 217.27 142.777 216.898 142.105C216.533 141.429 216.338 140.372 216.314 138.932L216.272 136.384C216.248 134.938 216.404 133.647 216.739 132.511C217.075 131.375 217.556 130.384 218.182 129.537C218.809 128.684 219.537 127.98 220.369 127.427C221.2 126.873 221.933 126.603 222.568 126.616C223.208 126.619 223.714 126.953 224.086 127.618C224.457 128.283 224.654 129.339 224.678 130.785L224.721 133.333ZM222.101 132.079C222.087 131.25 222.011 130.639 221.873 130.248C221.735 129.85 221.543 129.63 221.296 129.586C221.05 129.536 220.754 129.625 220.409 129.855C220.064 130.085 219.769 130.389 219.524 130.767C219.284 131.135 219.103 131.604 218.981 132.175C218.864 132.735 218.813 133.43 218.827 134.26L218.882 137.624C218.896 138.46 218.972 139.08 219.111 139.484C219.249 139.889 219.444 140.114 219.696 140.161C219.949 140.207 220.247 140.116 220.592 139.886C220.937 139.656 221.227 139.356 221.461 138.986C221.7 138.611 221.878 138.137 221.995 137.563C222.117 136.986 222.171 136.279 222.157 135.443L222.101 132.079Z" fill="black"/>
<rect x="532.977" y="253.521" width="18.0135" height="18.0135" transform="rotate(45 532.977 253.521)" stroke="black"/>
<defs>
<filter id="filter0_d_352_1787" x="0.509766" y="0.803955" width="634" height="634" filterUnits="userSpaceOnUse" color-interpolation-filters="sRGB">
<feFlood flood-opacity="0" result="BackgroundImageFix"/>
<feColorMatrix in="SourceAlpha" type="matrix" values="0 0 0 0 0 0 0 0 0 0 0 0 0 0 0 0 0 0 127 0" result="hardAlpha"/>
<feMorphology radius="2" operator="dilate" in="SourceAlpha" result="effect1_dropShadow_352_1787"/>
<feOffset dx="5" dy="7"/>
<feGaussianBlur stdDeviation="20"/>
<feComposite in2="hardAlpha" operator="out"/>
<feColorMatrix type="matrix" values="0 0 0 0 0.137255 0 0 0 0 0.101961 0 0 0 0 0.356863 0 0 0 0.05 0"/>
<feBlend mode="normal" in2="BackgroundImageFix" result="effect1_dropShadow_352_1787"/>
<feBlend mode="normal" in="SourceGraphic" in2="effect1_dropShadow_352_1787" result="shape"/>
</filter>
<linearGradient id="paint0_linear_352_1787" x1="278.68" y1="560.085" x2="-29.366" y2="325.25" gradientUnits="userSpaceOnUse">
<stop stop-color="#CEE2FF"/>
<stop offset="1" stop-color="#DDFFF9"/>
</linearGradient>
<linearGradient id="paint1_linear_352_1787" x1="-30.0709" y1="93.9716" x2="207.693" y2="105.384" gradientUnits="userSpaceOnUse">
<stop stop-color="#A9F801"/>
<stop offset="1" stop-color="#45FEE8"/>
</linearGradient>
</defs>
</svg>
