<?xml version="1.0" encoding="UTF-8"?>
<svg width="586px" height="586px" viewBox="0 0 586 586" version="1.1" xmlns="http://www.w3.org/2000/svg" xmlns:xlink="http://www.w3.org/1999/xlink">
    <title>definition-unslashable</title>
    <defs>
        <linearGradient x1="43.8492727%" y1="95.3238182%" x2="-12.1592727%" y2="52.6265455%" id="linearGradient-1">
            <stop stop-color="#CEE2FF" offset="0%"></stop>
            <stop stop-color="#DDFFF9" offset="100%"></stop>
        </linearGradient>
        <path d="M32.477,121.317123 C47.482,116.170123 50.386,85.0021231 38.962,51.7011231 C29.654,24.5661231 13.705,4.38812312 0,0.631123117 C14.99,-4.13587688 36.218,18.6091231 47.57,51.7011231 C58.993,85.0021231 56.09,116.170123 41.085,121.317123 C38.307,122.270123 35.308,122.264123 32.194,121.411123 C32.289,121.381123 32.383,121.349123 32.477,121.317123 Z" id="path-2"></path>
    </defs>
    <g id="Page-1" stroke="none" stroke-width="1" fill="none" fill-rule="evenodd">
        <g id="definition-unslashable" transform="translate(1.000000, 1.000000)">
            <circle id="Oval" fill="url(#linearGradient-1)" fill-rule="nonzero" cx="291.92" cy="291.92" r="275"></circle>
            <rect id="Rectangle" stroke="#000000" stroke-width="0.881517273" transform="translate(566.920759, 141.891913) scale(-1, 1) rotate(45.000000) translate(-566.920759, -141.891913) " x="561.180357" y="136.151511" width="11.4808036" height="11.4808036"></rect>
            <circle id="Oval" stroke="#DFECFF" stroke-width="2" cx="291.92" cy="291.92" r="291.92"></circle>
            <polygon id="Path" fill="#000000" fill-rule="nonzero" points="475.33 374.980242 259.768421 284.656769 205.861421 307.434769 95.361221 356.434769 307.33 485.783"></polygon>
            <polygon id="Rectangle" stroke="#000000" stroke-width="0.937500836" fill="#5945FE" fill-rule="nonzero" stroke-linejoin="round" points="186.33 153.783 343.816421 244.595843 343.911204 445.285269 186.33 350.647582"></polygon>
            <polygon id="Rectangle" stroke="#000000" stroke-width="0.937500836" fill="#2B2928" fill-rule="nonzero" stroke-linejoin="round" points="266.972421 224.475015 323.741421 261.26619 325.179259 411.450769 266.972421 371.345269"></polygon>
            <polygon id="Rectangle" stroke="#000000" stroke-width="0.937500672" fill="#FFFFFF" fill-rule="nonzero" stroke-linejoin="round" transform="translate(329.107210, 165.905684) rotate(45.000000) translate(-329.107210, -165.905684) " points="263.381314 132.174303 438.07244 73.7375159 395.150538 211.147047 220.141981 258.073853"></polygon>
            <polygon id="Rectangle" stroke="#000000" stroke-width="0.937500836" fill="#C2C8CF" fill-rule="nonzero" stroke-linejoin="round" points="343.816421 244.453769 471.33 177.783 471.33 374.331331 343.816421 445.783"></polygon>
            <polygon id="Path" stroke="#000000" stroke-width="0.937501" fill="#5945FE" fill-rule="nonzero" stroke-linejoin="round" points="199.724421 192.405769 285.868421 280.920769 285.868421 424.121769 199.724421 335.607769"></polygon>
            <polygon id="Path" stroke="#000000" stroke-width="0.937501" fill="#FFFFFF" fill-rule="nonzero" stroke-linejoin="round" points="267.084421 225.235769 313.360421 273.246769 285.709421 280.663769 199.721421 192.385769 206.953421 190.166769"></polygon>
            <polygon id="Path" stroke="#000000" stroke-width="0.937501" fill="#FFFFFF" fill-rule="nonzero" stroke-linejoin="round" points="285.869421 280.925769 313.466421 273.488769 313.466421 416.652769 285.869421 424.089769"></polygon>
            <polygon id="Rectangle" stroke="#000000" stroke-width="0.937500836" fill="#5945FE" fill-rule="nonzero" stroke-linejoin="round" transform="translate(312.550737, 172.415632) rotate(31.000000) translate(-312.550737, -172.415632) " points="255.094708 166.535112 361.766156 165.438643 370.006765 179.15332 262.82028 179.392621"></polygon>
            <polygon id="Rectangle" stroke="#000000" stroke-width="0.937500672" fill="#FFFFFF" fill-rule="nonzero" stroke-linejoin="round" transform="translate(331.830000, 153.783000) rotate(32.000000) translate(-331.830000, -153.783000) " points="293.850035 133.885915 395.855859 132.642058 374.440207 171.965967 267.804141 174.923942"></polygon>
            <polygon id="Rectangle" stroke="#000000" stroke-width="0.937500672" fill="#000000" fill-rule="nonzero" stroke-linejoin="round" transform="translate(334.330000, 152.283000) rotate(32.000000) translate(-334.330000, -152.283000) " points="303.66169 142.774716 377.631849 142.323088 367.666176 160.342116 291.028151 162.242912"></polygon>
            <polygon id="Rectangle" stroke="#000000" stroke-width="0.937500836" fill="#C2C8CF" fill-rule="nonzero" stroke-linejoin="round" transform="translate(377.830000, 188.783000) scale(1, -1) rotate(56.000000) translate(-377.830000, -188.783000) " points="351.174025 194.324567 391.221374 174.294346 404.485975 183.241433 364.438626 203.271654"></polygon>
            <path d="M244.728421,294.388769 C250.341421,310.751769 252.385421,326.463769 251.256421,338.580769 C250.101421,350.984769 245.796421,358.440769 239.991421,360.432769 C234.185421,362.423769 226.211421,359.180769 217.685421,350.097769 C209.355421,341.224769 201.324421,327.566769 195.711421,311.203769 C190.098421,294.840769 188.054421,279.128769 189.183421,267.011769 C190.338421,254.607769 194.643421,247.151769 200.448421,245.159769 C206.254421,243.168769 214.228421,246.411769 222.755421,255.494769 C231.084421,264.367769 239.115421,278.025769 244.728421,294.388769 Z" id="Path" stroke="#000000" stroke-width="5.62501"></path>
            <path d="M238.782421,363.092769 C253.787421,357.945769 256.691421,326.777769 245.267421,293.476769 C235.959421,266.341769 220.010421,246.163769 206.305421,242.406769 C221.295421,237.639769 242.523421,260.384769 253.875421,293.476769 C265.298421,326.777769 262.395421,357.945769 247.390421,363.092769 C244.612421,364.045769 241.613421,364.039769 238.499421,363.186769 C238.594421,363.156769 238.688421,363.124769 238.782421,363.092769 Z" id="Path" fill="#FFFFFF"></path>
            <g id="Clipped" transform="translate(206.305421, 241.775646)">
                <mask id="mask-3" fill="white">
                    <use xlink:href="#path-2"></use>
                </mask>
                <g id="Path"></g>
                <path d="M38.962,51.7011231 L39.849,51.3971231 L38.962,51.7011231 Z M32.477,121.317123 L32.173,120.430123 L32.173,120.430123 L32.477,121.317123 Z M0,0.631123117 L-0.284,-0.262876883 L-3.303,0.697123117 L-0.248,1.53512312 L0,0.631123117 Z M47.57,51.7011231 L48.457,51.3971231 L47.57,51.7011231 Z M41.085,121.317123 L40.781,120.430123 L40.781,120.430123 L41.085,121.317123 Z M32.194,121.411123 L31.91,120.517123 L28.891,121.477123 L31.946,122.315123 L32.194,121.411123 Z M38.076,52.0051231 C43.754,68.5601231 45.856,84.5421231 44.697,96.9801231 C43.53,109.513123 39.11,118.051123 32.173,120.430123 L32.782,122.204123 C40.85,119.436123 45.384,109.816123 46.564,97.1541231 C47.752,84.3951231 45.594,68.1431231 39.849,51.3971231 L38.076,52.0051231 Z M-0.248,1.53512312 C6.317,3.33412312 13.574,9.13112312 20.387,17.9711231 C27.181,26.7851231 33.45,38.5201231 38.076,52.0051231 L39.849,51.3971231 C35.167,37.7461231 28.807,25.8241231 21.873,16.8271231 C14.958,7.85512312 7.389,1.68412312 0.248,-0.272876883 L-0.248,1.53512312 Z M0.284,1.52412312 C7.22,-0.681876883 15.908,3.42912312 24.464,12.6081231 C32.955,21.7181231 41.04,35.5541231 46.683,52.0051231 L48.457,51.3971231 C42.748,34.7551231 34.543,20.6731231 25.835,11.3291231 C17.191,2.05512312 7.77,-2.82387688 -0.284,-0.262876883 L0.284,1.52412312 Z M46.683,52.0051231 C52.362,68.5601231 54.463,84.5421231 53.304,96.9801231 C52.137,109.513123 47.717,118.051123 40.781,120.430123 L41.389,122.204123 C49.457,119.436123 53.992,109.816123 55.171,97.1541231 C56.36,84.3951231 54.201,68.1431231 48.457,51.3971231 L46.683,52.0051231 Z M40.781,120.430123 C38.209,121.313123 35.406,121.319123 32.442,120.507123 L31.946,122.315123 C35.211,123.210123 38.404,123.228123 41.389,122.204123 L40.781,120.430123 Z M32.173,120.430123 C32.086,120.460123 31.998,120.489123 31.91,120.517123 L32.478,122.304123 C32.58,122.272123 32.681,122.239123 32.782,122.204123 L32.173,120.430123 Z" id="Shape" fill="#000000" fill-rule="nonzero" mask="url(#mask-3)"></path>
            </g>
            <path d="M217.755421,305.462769 C219.465421,310.447769 221.918421,314.627769 224.481421,317.357769 C227.076421,320.123769 229.641421,321.263769 231.626421,320.582769 C233.612421,319.901769 234.937421,317.426769 235.288421,313.650769 C235.636421,309.921769 235.006421,305.116769 233.296421,300.130769 C231.585421,295.145769 229.133421,290.965769 226.570421,288.234769 C223.974421,285.469769 221.409421,284.329769 219.424421,285.010769 C217.439421,285.691769 216.114421,288.166769 215.762421,291.942769 C215.415421,295.670769 216.044421,300.476769 217.755421,305.462769 Z" id="Path" stroke="#000000" stroke-width="0.937501" fill="#FFFFFF" fill-rule="nonzero"></path>
            <path d="M211.392421,443.934769 C211.392421,453.889769 203.641421,463.015769 190.849421,469.682769 C178.080421,476.336769 160.407621,480.466769 140.861221,480.466769 C121.314921,480.466769 103.642221,476.336769 90.873321,469.682769 C78.081541,463.015769 70.33,453.889769 70.33,443.934769 C70.33,433.980769 78.081541,424.853769 90.873321,418.187769 C103.642221,411.533769 121.314921,407.403769 140.861221,407.403769 C160.407621,407.403769 178.080421,411.533769 190.849421,418.187769 C203.641421,424.853769 211.392421,433.980769 211.392421,443.934769 Z" id="Path" stroke="#000000" stroke-width="0.937501" fill="#000000" fill-rule="nonzero"></path>
            <path d="M210.589421,441.574769 C210.589421,451.281769 203.762421,460.158769 192.528421,466.635769 C181.308421,473.105769 165.775621,477.121769 148.593521,477.121769 C131.411521,477.121769 115.879121,473.105769 104.658421,466.635769 C93.425121,460.158769 86.597421,451.281769 86.597421,441.574769 C86.597421,431.867769 93.425121,422.990769 104.658421,416.513769 C115.879121,410.044769 131.411521,406.027769 148.593521,406.027769 C165.775621,406.027769 181.308421,410.044769 192.528421,416.513769 C203.762421,422.990769 210.589421,431.867769 210.589421,441.574769 Z" id="Path" stroke="#000000" stroke-width="0.937501" fill="#5945FE" fill-rule="nonzero"></path>
            <path d="M210.589421,428.309769 C210.589421,438.016769 203.762421,446.894769 192.528421,453.370769 C181.308421,459.840769 165.775621,463.856769 148.593521,463.856769 C131.411521,463.856769 115.879121,459.840769 104.658421,453.370769 C93.425121,446.894769 86.597421,438.016769 86.597421,428.309769 C86.597421,418.603769 93.425121,409.725769 104.658421,403.249769 C115.879121,396.779769 131.411521,392.762769 148.593521,392.762769 C165.775621,392.762769 181.308421,396.779769 192.528421,403.249769 C203.762421,409.725769 210.589421,418.603769 210.589421,428.309769 Z" id="Path" stroke="#000000" stroke-width="0.937501" fill="#FFFFFF" fill-rule="nonzero"></path>
            <g id="Group" transform="translate(103.764321, 411.776769)" stroke="#000000" stroke-width="0.937501">
                <polygon id="Path" points="22.8941 16.794 -7.10542736e-15 18.596 36.2248 0.942"></polygon>
                <polygon id="Path" points="38.6118 31.298 0.0732 19.53 22.9668 17.729"></polygon>
                <polygon id="Path" points="56.2991 14.035 29.4926 16.144 43.6824 5.68434189e-14"></polygon>
                <polygon id="Path" points="45.0619 0.132 89.2351 11.441 57.4761 13.943"></polygon>
                <polygon id="Path" points="56.372 14.97 46.1069 30.804 29.5656 17.078"></polygon>
                <polygon id="Path" points="47.4489 30.458 57.5492 14.877 89.3081 12.376"></polygon>
            </g>
            <g id="bitcoin" transform="translate(297.940086, 17.498220)" stroke="#000000" stroke-width="0.937501">
                
                <path d="M44.1493349,0.0632492568 C53.8273349,-0.695650743 63.2103349,5.41724926 70.5463349,16.1097493 C77.8733349,26.7903493 83.0913349,41.9612493 84.4343349,59.0907493 C85.7773349,76.2205493 82.9873349,92.0185493 77.4153349,103.711549 C71.8363349,115.416549 63.5203349,122.917549 53.8423349,123.675549 C44.1653349,124.434549 34.7813349,118.321549 27.4463349,107.629549 C20.1193349,96.9485493 14.9013349,81.7775493 13.5583349,64.6484493 C12.2153349,47.5190493 15.0043349,31.7201493 20.5773349,20.0279493 C26.1563349,8.32284926 34.4723349,0.822049257 44.1493349,0.0632492568 Z" id="Path" fill="#000000" fill-rule="nonzero"></path>
                <path d="M30.9253349,1.10034926 C40.6023349,0.341549257 49.9863349,6.45434926 57.3213349,17.1468493 C64.6483349,27.8274493 69.8663349,42.9983493 71.2103349,60.1278493 C72.5533349,77.2575493 69.7633349,93.0565493 64.1903349,104.748549 C58.6113349,116.453549 50.2953349,123.954549 40.6183349,124.713549 C30.9413349,125.471549 21.5573349,119.359549 14.2223349,108.666549 C6.89533487,97.9855493 1.67633487,82.8145493 0.333334874,65.6855493 C-1.00966513,48.5561493 1.78033487,32.7572493 7.35333487,21.0651493 C12.9313349,9.35994926 21.2483349,1.85914926 30.9253349,1.10034926 Z" id="Path" fill="#A9F801" fill-rule="nonzero"></path>
                <g id="Group" transform="translate(19.378335, 18.888249)">
                    <polygon id="Path" points="18.369 65.8663 21.954 88.5493 1.523 53.8163"></polygon>
                    <polygon id="Path" points="31.599 49.0623 22.88 88.4033 19.295 65.7203"></polygon>
                    <polygon id="Path" points="13.006 32.7789 17.204 59.3383 -2.84217094e-14 46.4542"></polygon>
                    <polygon id="Path" points="0.024 45.0686 7.846 0.1461 12.822 31.6126"></polygon>
                    <polygon id="Path" points="13.933 32.6326 30.521 41.6285 18.13 59.1923"></polygon>
                    <polygon id="Path" points="30.07 40.3173 13.748 31.4659 8.772 0"></polygon>
                </g>
                <animateTransform
                    attributeType="XML"
                    attributeName="transform"
                    type="translate"
                    from="297.940086,7.498220" 
                    to="297.940086,27.498220"
                    dur="2s"
                    repeatCount="indefinite"
                />
            </g>
            <path d="M567.203421,18.311369 C571.420421,24.687869 570.808421,33.512969 566.206421,42.721169 C561.612421,51.914669 553.084421,61.382269 541.694421,68.914869 C530.305421,76.447369 518.255421,80.589769 507.997421,81.219469 C497.722421,81.850269 489.362421,78.959469 485.144421,72.583069 C480.927421,66.206569 481.539421,57.381469 486.141421,48.173269 C490.735421,38.979669 499.263421,29.512069 510.653421,21.979569 C522.042421,14.446969 534.092421,10.304669 544.350421,9.67486896 C554.625421,9.04416896 562.985421,11.934869 567.203421,18.311369 Z" id="Path" stroke="#000000" stroke-width="1.06946" fill="#000000" fill-rule="nonzero"></path>
            <path d="M561.378421,9.50426896 C565.596421,15.880769 564.984421,24.705769 560.382421,33.914069 C555.787421,43.107569 547.259421,52.575169 535.870421,60.107669 C524.481421,67.640269 512.431421,71.782569 502.173421,72.412369 C491.898421,73.043169 483.537421,70.152369 479.320421,63.775869 C475.103421,57.399469 475.715421,48.574369 480.317421,39.366069 C484.911421,30.172569 493.439421,20.704969 504.828421,13.172469 C516.217421,5.63986896 528.268421,1.49756896 538.526421,0.867768959 C548.801421,0.236968959 557.161421,3.12776896 561.378421,9.50426896 Z" id="Path" stroke="#000000" stroke-width="1.06946" fill="#FFFFFF" fill-rule="nonzero"></path>
            <path d="M522.693421,41.468769 C523.463421,40.807969 523.907421,40.206569 524.024421,39.664469 C524.142421,39.122369 523.877421,38.558069 523.230421,37.971569 C522.583421,37.385069 521.487421,36.704269 519.941421,35.929269 C518.729421,35.325669 517.712421,34.713569 516.892421,34.092969 C516.097421,33.465669 515.537421,32.819769 515.212421,32.155269 C514.886421,31.490769 514.854421,30.795569 515.114421,30.069769 C515.375421,29.343869 515.980421,28.573969 516.929421,27.759869 C518.202421,26.668069 519.776421,25.782569 521.650421,25.103469 C523.550421,24.417569 525.586421,23.987969 527.757421,23.814769 C529.940421,23.631969 532.107421,23.752169 534.258421,24.175369 C536.639421,24.643969 538.308421,25.343169 539.265421,26.273169 C540.233421,27.193569 540.586421,28.222569 540.324421,29.360269 C540.073421,30.488469 539.311421,31.598369 538.038421,32.690269 L533.816421,31.859569 C534.732421,31.074169 535.295421,30.325369 535.504421,29.612969 C535.728421,28.903469 535.528421,28.275569 534.906421,27.729169 C534.294421,27.173169 533.201421,26.740369 531.628421,26.430769 C530.156421,26.141169 528.763421,26.049569 527.450421,26.156269 C526.151421,26.265669 524.975421,26.528769 523.921421,26.945469 C522.867421,27.362269 521.961421,27.896169 521.201421,28.547469 C520.520421,29.131669 520.164421,29.703369 520.133421,30.262469 C520.114421,30.811969 520.433421,31.375269 521.091421,31.952169 C521.750421,32.529069 522.748421,33.149369 524.086421,33.812969 C525.954421,34.722069 527.312421,35.619269 528.161421,36.504569 C529.010421,37.389769 529.332421,38.300869 529.127421,39.237769 C528.936421,40.177569 528.210421,41.188469 526.948421,42.270769 C525.630421,43.400869 524.026421,44.297869 522.134421,44.961769 C520.242421,45.625669 518.205421,46.025569 516.023421,46.161569 C513.842421,46.297469 511.640421,46.146869 509.417421,45.709469 C507.959421,45.422669 506.679421,45.005969 505.577421,44.459469 C504.490421,43.915869 503.681421,43.262269 503.152421,42.498769 C502.637421,41.738069 502.491421,40.896869 502.714421,39.975269 C502.962421,39.046869 503.695421,38.060669 504.912421,37.016769 L509.112421,37.843169 C508.275421,38.561469 507.764421,39.220369 507.579421,39.819969 C507.395421,40.419469 507.468421,40.957869 507.799421,41.435069 C508.130421,41.912269 508.662421,42.323169 509.396421,42.667669 C510.142421,43.002669 511.019421,43.269569 512.030421,43.468369 C513.488421,43.755169 514.871421,43.862569 516.179421,43.790269 C517.514421,43.711369 518.731421,43.473969 519.831421,43.078169 C520.946421,42.685269 521.900421,42.148769 522.693421,41.468769 Z" id="Path" fill="#9698A5" fill-rule="nonzero"></path>
            <line x1="503.556825" y1="34.884106" x2="542.891515" y2="34.884106" id="Path" stroke="#9698A5" stroke-width="3.76602906" stroke-linecap="round" transform="translate(523.224170, 34.884106) rotate(127.725675) translate(-523.224170, -34.884106) "></line>
            <rect id="Rectangle" stroke="#000000" transform="translate(102.191321, 76.753137) rotate(45.000000) translate(-102.191321, -76.753137) " x="93.184571" y="67.746387" width="18.0135" height="18.0135"></rect>
            <ellipse id="Oval" stroke="#000000" stroke-width="0.881517" transform="translate(210.172011, 79.368079) scale(-1, 1) translate(-210.172011, -79.368079) " cx="210.172011" cy="79.3680787" rx="6.97664996" ry="6.97664978"></ellipse>
            <ellipse id="Oval" stroke="#000000" stroke-width="0.881517" transform="translate(108.754411, 202.352179) scale(-1, 1) translate(-108.754411, -202.352179) " cx="108.754411" cy="202.352179" rx="6.97664996" ry="6.97664978"></ellipse>
        </g>
    </g>
</svg>