<svg width="587" height="587" viewBox="0 0 587 587" fill="none" xmlns="http://www.w3.org/2000/svg">
<circle cx="293.223" cy="292.637" r="275" fill="url(#paint0_linear_352_1656)"/>
<mask id="mask0_352_1656" style="mask-type:alpha" maskUnits="userSpaceOnUse" x="18" y="17" width="551" height="551">
<circle cx="293.223" cy="292.637" r="275" fill="white"/>
</mask>
<g mask="url(#mask0_352_1656)">
<path d="M334.487 61.9061C336.775 50.9926 345.943 47.4587 354.964 54.013L452.891 125.161C461.912 131.716 467.371 145.876 465.083 156.79L412.889 405.761C410.601 416.674 401.433 420.208 392.412 413.654L294.484 342.505C285.463 335.951 280.005 321.791 282.293 310.877L334.487 61.9061Z" fill="black"/>
<path d="M381.468 427.48L419.433 294.777L435.065 298.219L405.596 416.085L381.468 427.48Z" fill="black"/>
<path d="M341.144 51.8849L457.947 132.017L444.333 148.481L318.154 62.8416L341.144 51.8849Z" fill="black"/>
<mask id="path-4-inside-1_352_1656" fill="white">
<path fill-rule="evenodd" clip-rule="evenodd" d="M463.777 140.864L433.844 151.536L330.691 80.013L332.281 72.4299L318.154 62.8418L341.144 51.8851L341.146 51.8865C345.023 49.8581 350.016 50.418 354.964 54.0132L452.891 125.162C457.799 128.727 461.652 134.543 463.777 140.864Z"/>
</mask>
<path fill-rule="evenodd" clip-rule="evenodd" d="M463.777 140.864L433.844 151.536L330.691 80.013L332.281 72.4299L318.154 62.8418L341.144 51.8851L341.146 51.8865C345.023 49.8581 350.016 50.418 354.964 54.0132L452.891 125.162C457.799 128.727 461.652 134.543 463.777 140.864Z" fill="#5945FE"/>
<path d="M463.777 140.864L464.143 141.844L464.75 141.628L464.433 140.686L463.777 140.864ZM433.844 151.536L433.68 152.411L433.961 152.606L434.21 152.517L433.844 151.536ZM330.691 80.013L329.978 79.4949L329.793 80.3786L330.527 80.888L330.691 80.013ZM332.281 72.4299L332.994 72.9481L333.181 72.055L332.437 71.5498L332.281 72.4299ZM318.154 62.8418L317.747 61.8787L316.299 62.5687L317.998 63.722L318.154 62.8418ZM341.144 51.8851L341.304 51.0075L340.998 50.7976L340.737 50.922L341.144 51.8851ZM341.146 51.8865L340.986 52.7641L341.303 52.9812L341.568 52.8423L341.146 51.8865ZM354.964 54.0132L354.783 54.8759L354.964 54.0132ZM452.891 125.162L453.072 124.299L452.891 125.162ZM463.411 139.883L433.478 150.556L434.21 152.517L464.143 141.844L463.411 139.883ZM434.008 150.661L330.855 79.1381L330.527 80.888L433.68 152.411L434.008 150.661ZM331.568 71.9118L329.978 79.4949L331.404 80.5312L332.994 72.9481L331.568 71.9118ZM317.998 63.722L332.125 73.3101L332.437 71.5498L318.31 61.9617L317.998 63.722ZM340.737 50.922L317.747 61.8787L318.561 63.8049L341.552 52.8482L340.737 50.922ZM341.306 51.0089L341.304 51.0075L340.984 52.7627L340.986 52.7641L341.306 51.0089ZM355.145 53.1504C349.98 49.3982 344.769 48.8146 340.724 50.9308L341.568 52.8423C345.277 50.9017 350.051 51.4379 354.783 54.8759L355.145 53.1504ZM453.072 124.299L355.145 53.1504L354.783 54.8759L452.71 126.024L453.072 124.299ZM464.433 140.686C462.216 134.092 458.194 128.02 453.072 124.299L452.71 126.024C457.403 129.434 461.088 134.995 463.121 141.041L464.433 140.686Z" fill="black" mask="url(#path-4-inside-1_352_1656)"/>
<mask id="path-6-inside-2_352_1656" fill="white">
<path fill-rule="evenodd" clip-rule="evenodd" d="M461.507 135.532L429.969 146.778L331.07 78.204L332.281 72.4299L318.154 62.8418L341.144 51.8851L341.146 51.8865C345.023 49.8581 350.016 50.418 354.964 54.0132L452.891 125.162C456.375 127.693 459.327 131.358 461.507 135.532Z"/>
</mask>
<path fill-rule="evenodd" clip-rule="evenodd" d="M461.507 135.532L429.969 146.778L331.07 78.204L332.281 72.4299L318.154 62.8418L341.144 51.8851L341.146 51.8865C345.023 49.8581 350.016 50.418 354.964 54.0132L452.891 125.162C456.375 127.693 459.327 131.358 461.507 135.532Z" fill="#5945FE"/>
<path d="M461.507 135.532L461.873 136.513L462.646 136.237L462.065 135.123L461.507 135.532ZM429.969 146.778L429.805 147.652L430.086 147.847L430.335 147.758L429.969 146.778ZM331.07 78.204L330.357 77.6859L330.172 78.5695L330.907 79.0789L331.07 78.204ZM332.281 72.4299L332.994 72.9481L333.181 72.055L332.437 71.5498L332.281 72.4299ZM318.154 62.8418L317.747 61.8787L316.299 62.5687L317.998 63.722L318.154 62.8418ZM341.144 51.8851L341.304 51.0075L340.998 50.7976L340.737 50.922L341.144 51.8851ZM341.146 51.8865L340.986 52.7641L341.303 52.9812L341.568 52.8423L341.146 51.8865ZM354.964 54.0132L354.783 54.8759L354.964 54.0132ZM452.891 125.162L453.072 124.299L452.891 125.162ZM461.141 134.552L429.603 145.797L430.335 147.758L461.873 136.513L461.141 134.552ZM430.133 145.903L331.234 77.3291L330.907 79.0789L429.805 147.652L430.133 145.903ZM331.568 71.9118L330.357 77.6859L331.783 78.7222L332.994 72.9481L331.568 71.9118ZM317.998 63.722L332.125 73.3101L332.437 71.5498L318.31 61.9617L317.998 63.722ZM340.737 50.922L317.747 61.8787L318.561 63.8049L341.552 52.8482L340.737 50.922ZM341.306 51.0089L341.304 51.0075L340.984 52.7627L340.986 52.7641L341.306 51.0089ZM355.145 53.1504C349.98 49.3982 344.769 48.8146 340.724 50.9308L341.568 52.8423C345.277 50.9017 350.051 51.4379 354.783 54.8759L355.145 53.1504ZM453.072 124.299L355.145 53.1504L354.783 54.8759L452.71 126.024L453.072 124.299ZM462.065 135.123C459.789 130.766 456.707 126.94 453.072 124.299L452.71 126.024C456.043 128.446 458.865 131.95 460.95 135.942L462.065 135.123Z" fill="black" mask="url(#path-6-inside-2_352_1656)"/>
<rect x="0.266147" y="0.690453" width="160.544" height="293.882" rx="18.16" transform="matrix(0.809017 0.587785 -0.205179 0.978724 314.846 53.3607)" fill="white" stroke="black" stroke-width="0.881517"/>
<path d="M346.02 88.4246C348.477 90.2097 349.964 94.0664 349.341 97.0388C348.586 100.64 350.387 105.312 353.363 107.474L397.135 139.276C400.111 141.438 403.136 140.273 403.891 136.672C404.514 133.699 407.011 132.737 409.468 134.522L420.497 142.535C428.664 148.469 433.647 160.869 431.689 170.211L382.735 403.724C380.777 413.065 372.599 415.904 364.432 409.97L278.926 347.847C270.759 341.913 265.776 329.512 267.734 320.171L316.688 86.6577C318.646 77.3164 326.824 74.478 334.991 80.4116L346.02 88.4246Z" stroke="black" stroke-width="1.16255"/>
<rect x="0.350995" y="0.91057" width="30.3527" height="3.83693" rx="1.91847" transform="matrix(0.809017 0.587785 -0.205179 0.978724 361.609 98.7227)" stroke="black" stroke-width="1.16255"/>
<path d="M393.39 125.003C393.178 126.014 392.278 126.359 391.342 125.679C390.407 125 389.87 123.611 390.082 122.6C390.294 121.589 391.194 121.245 392.13 121.924C393.065 122.604 393.602 123.992 393.39 125.003Z" stroke="black" stroke-width="1.16255"/>
<circle cx="40.2613" cy="40.2613" r="39.8206" transform="matrix(0.809017 0.587785 -0.197144 0.980375 334.02 132.724)" fill="white"/>
<circle cx="40.2613" cy="40.2613" r="39.8206" transform="matrix(0.809017 0.587785 -0.197144 0.980375 334.02 132.724)" fill="white"/>
<circle cx="40.2613" cy="40.2613" r="39.8206" transform="matrix(0.809017 0.587785 -0.197144 0.980375 334.02 132.724)" fill="white"/>
<circle cx="40.2613" cy="40.2613" r="39.8206" transform="matrix(0.809017 0.587785 -0.197144 0.980375 334.02 132.724)" stroke="black" stroke-width="0.881517"/>
<path d="M380.213 199.011L377.237 198.044L377.75 200.583L380.213 199.011Z" fill="#5945FE" stroke="black"/>
<path d="M379.004 190.645L376.028 189.678L376.541 192.217L379.004 190.645Z" fill="#5945FE" stroke="black"/>
<path d="M344.515 172.022L343.652 164.46C343.061 165.355 342.512 170.486 342.311 172.94L344.515 172.022Z" fill="#5945FE" stroke="black"/>
<path d="M348.43 172.25C347.661 168.583 349.676 162.902 350.78 160.519C350.811 163.608 350.893 170.101 350.973 171.359C351.073 172.932 349.392 176.834 348.43 172.25Z" fill="#5945FE" stroke="black"/>
<path d="M354.788 172.976C354.444 170.28 356.711 164.475 357.887 161.909C358.091 165.52 358.401 173.124 358.016 174.647C357.535 176.551 355.219 176.346 354.788 172.976Z" fill="#5945FE" stroke="black"/>
<path d="M363.208 177.908C363.291 175.318 366.569 170.745 368.198 168.782C367.821 172.165 366.907 179.247 366.263 180.517C365.458 182.105 363.104 181.144 363.208 177.908Z" fill="#5945FE" stroke="black"/>
<path d="M377.825 182.098C375.273 181.902 370.126 182.305 369.632 184.403C369.013 187.024 373.187 186.887 377.825 182.098Z" fill="#5945FE" stroke="black"/>
<path d="M336.112 168.591C337.809 168.765 339.781 172.543 340.394 174.326L338.985 181.103C338.459 180.582 337.011 179.032 335.431 176.998C333.457 174.457 333.402 168.313 336.112 168.591Z" fill="#5945FE" stroke="black"/>
<circle cx="26.7345" cy="26.7345" r="26.2345" transform="matrix(0.760406 0.649448 -0.277482 0.960731 344.17 155.09)" fill="white" stroke="black"/>
<mask id="path-22-inside-3_352_1656" fill="white">
<path fill-rule="evenodd" clip-rule="evenodd" d="M377.507 215.158C375.732 206.875 371.521 198.925 365.656 193.916C360.743 189.72 355.576 188.361 351.141 189.542C350.163 185.824 348.197 182.333 345.542 180.065C342.839 177.757 339.98 177.193 337.643 178.169C342.441 166.166 353.994 163.481 364.499 172.453C375.636 181.965 381.414 201.006 377.507 215.158Z"/>
</mask>
<path fill-rule="evenodd" clip-rule="evenodd" d="M377.507 215.158C375.732 206.875 371.521 198.925 365.656 193.916C360.743 189.72 355.576 188.361 351.141 189.542C350.163 185.824 348.197 182.333 345.542 180.065C342.839 177.757 339.98 177.193 337.643 178.169C342.441 166.166 353.994 163.481 364.499 172.453C375.636 181.965 381.414 201.006 377.507 215.158Z" fill="#5945FE"/>
<path d="M377.507 215.158L376.736 215.235L377.474 218.679L378.271 215.795L377.507 215.158ZM351.141 189.542L350.391 189.702L350.703 190.889L351.468 190.685L351.141 189.542ZM337.643 178.169L336.915 177.423L335.795 180.225L338.033 179.29L337.643 178.169ZM378.277 215.08C376.429 206.456 372.043 198.173 365.933 192.955L365.378 194.876C370.999 199.677 375.034 207.294 376.736 215.235L378.277 215.08ZM365.933 192.955C360.816 188.585 355.433 187.169 350.815 188.399L351.468 190.685C355.719 189.552 360.67 190.855 365.378 194.876L365.933 192.955ZM351.892 189.382C350.832 185.353 348.699 181.564 345.819 179.105L345.264 181.026C347.695 183.102 349.494 186.296 350.391 189.702L351.892 189.382ZM345.819 179.105C342.888 176.601 339.786 175.99 337.253 177.048L338.033 179.29C340.174 178.396 342.79 178.913 345.264 181.026L345.819 179.105ZM338.37 178.915C342.989 167.362 354.11 164.778 364.222 173.414L364.777 171.493C353.878 162.184 341.894 164.97 336.915 177.423L338.37 178.915ZM364.222 173.414C374.942 182.57 380.503 200.899 376.743 214.521L378.271 215.795C382.324 201.114 376.33 181.361 364.777 171.493L364.222 173.414Z" fill="black" mask="url(#path-22-inside-3_352_1656)"/>
<ellipse cx="3.8786" cy="2.21342" rx="3.8786" ry="2.21342" transform="matrix(0.760406 0.649448 -0.277482 0.960731 339.802 171.886)" fill="#EA9673"/>
<ellipse cx="4.2601" cy="2.43114" rx="4.2601" ry="2.43114" transform="matrix(0.760406 0.649448 -0.277482 0.960731 364.068 190.526)" fill="#EA9673"/>
<ellipse cx="3.06717" cy="1.95744" rx="3.06717" ry="1.95744" transform="matrix(-0.277482 0.960731 -0.760406 -0.649448 348.828 171.192)" fill="black"/>
<circle cx="0.799178" cy="0.799178" r="0.799178" transform="matrix(0.760406 0.649448 -0.277482 0.960731 346.908 171.312)" fill="white"/>
<ellipse cx="3.06717" cy="1.95744" rx="3.06717" ry="1.95744" transform="matrix(-0.277482 0.960731 -0.760406 -0.649448 367.145 186.301)" fill="black"/>
<circle cx="0.799178" cy="0.799178" r="0.799178" transform="matrix(0.760406 0.649448 -0.277482 0.960731 365.225 186.42)" fill="white"/>
<path d="M381.882 225.174C380.043 221.274 376.697 221.041 375.254 221.412C372.343 224.322 372.666 230.069 373.192 232.579C375.491 231.684 380.026 229.791 379.766 229.377C379.506 228.963 378.514 226.921 378.05 225.952C378.565 226.391 380.057 228.256 380.738 229.134L381.882 225.174Z" fill="#5945FE" stroke="black" stroke-linejoin="round"/>
<path d="M379.616 224.562C379.057 223.982 377.609 222.786 376.294 222.643" stroke="black" stroke-linecap="round" stroke-linejoin="round"/>
<path d="M377.122 227.471L375.335 223.092" stroke="black" stroke-linecap="round" stroke-linejoin="round"/>
<path d="M374.452 230.331C374.219 229.155 373.973 226.308 374.851 224.326" stroke="black" stroke-linecap="round" stroke-linejoin="round"/>
<path d="M370.661 200.602C373.212 199.997 379.228 199.569 382.887 202.694C386.546 205.819 376.692 214.536 370.661 200.602Z" fill="#5945FE" stroke="black"/>
<path d="M345.31 205.127C345.31 205.961 344.312 207.024 343.813 207.451C343.814 206.757 343.876 205.21 344.117 204.582C344.419 203.797 345.311 204.085 345.31 205.127Z" fill="#5945FE"/>
<path d="M347.846 213.332C347.945 213.938 346.884 214.415 346.341 214.578C346.364 213.97 346.458 212.667 346.652 212.312C346.894 211.868 347.721 212.574 347.846 213.332Z" fill="#5945FE"/>
<path d="M352.474 213.957C352.429 214.903 351.39 215.66 350.876 215.92C350.743 214.994 350.334 213.524 350.729 212.467C350.981 211.792 352.529 212.775 352.474 213.957Z" fill="#5945FE"/>
<path d="M359.697 212.533C359.81 213.092 359.214 213.808 358.902 214.096C358.814 213.685 358.657 212.742 358.736 212.25C358.834 211.636 359.556 211.833 359.697 212.533Z" fill="#5945FE"/>
<path d="M357.111 220.296C357.269 221.03 356.514 221.832 356.116 222.141C355.966 221.431 355.546 220.325 355.836 219.556C356.006 219.102 356.914 219.379 357.111 220.296Z" fill="#5945FE"/>
<path d="M362.598 221.93C363.104 221.084 363.917 219.129 363.122 218.073C362.127 216.752 360.294 217.857 362.598 221.93Z" fill="#5945FE"/>
<path d="M368.408 218.822C368.54 217.872 368.522 215.949 367.401 215.861C365.999 215.75 368.156 218.606 368.408 218.822Z" fill="#5945FE"/>
<path d="M341.383 198.69C341.159 199.051 340.337 199.05 339.954 199.004C340.021 198.456 340.283 197.35 340.79 197.308C341.425 197.255 341.661 198.24 341.383 198.69Z" fill="#5945FE"/>
<path d="M348.711 206.146C349.191 206.163 350.203 205.943 350.404 204.928C350.656 203.659 348.82 202.315 348.711 206.146Z" fill="#5945FE"/>
<path d="M362.952 167.303C361.921 168.465 360.01 171.16 360.618 172.649C361.378 174.509 363.337 173.974 362.952 167.303Z" fill="#9BE6FF" stroke="black"/>
<path d="M379.036 194.238C377.658 193.815 374.849 193.298 374.647 194.605C374.395 196.24 376.234 197.856 379.036 194.238Z" fill="#9BE6FF" stroke="black"/>
<path d="M353.15 190.749C352.663 192.434 351.846 193.614 350.938 194.174C350.029 194.735 349.062 194.663 348.229 193.951C347.395 193.239 346.778 191.958 346.488 190.374C346.199 188.791 346.252 186.959 346.739 185.273C347.226 183.587 348.043 182.408 348.951 181.848C349.86 181.287 350.827 181.359 351.66 182.071C352.493 182.783 353.111 184.063 353.401 185.648C353.69 187.231 353.637 189.063 353.15 190.749Z" fill="white" stroke="black"/>
<path d="M351.149 188.652C350.88 189.583 350.431 190.225 349.942 190.527C349.452 190.83 348.955 190.777 348.543 190.425C348.131 190.073 347.806 189.424 347.65 188.569C347.494 187.717 347.52 186.713 347.789 185.782C348.058 184.851 348.507 184.208 348.997 183.907C349.487 183.604 349.984 183.656 350.396 184.008C350.808 184.36 351.133 185.01 351.289 185.864C351.445 186.717 351.418 187.72 351.149 188.652Z" fill="#E87570" stroke="black"/>
<ellipse opacity="0.12" cx="3.91057" cy="4.2413" rx="3.91057" ry="4.2413" transform="matrix(0.80869 0.329317 -0.0351265 1.11191 363.174 198.411)" fill="#5945FE"/>
<mask id="path-42-inside-4_352_1656" fill="white">
<path fill-rule="evenodd" clip-rule="evenodd" d="M306.107 257.752C305.882 257.912 305.658 258.074 305.437 258.237C285.81 272.704 286.063 295.808 306.003 309.841C325.942 323.873 358.017 323.521 377.644 309.055C377.866 308.891 378.085 308.726 378.302 308.561L306.107 257.752Z"/>
</mask>
<path fill-rule="evenodd" clip-rule="evenodd" d="M306.107 257.752C305.882 257.912 305.658 258.074 305.437 258.237C285.81 272.704 286.063 295.808 306.003 309.841C325.942 323.873 358.017 323.521 377.644 309.055C377.866 308.891 378.085 308.726 378.302 308.561L306.107 257.752Z" fill="#030303"/>
<path d="M306.107 257.752L306.816 257.229L306.109 256.731L305.399 257.236L306.107 257.752ZM378.302 308.561L379.036 309.058L379.72 308.536L379.012 308.038L378.302 308.561ZM306.158 258.745C306.375 258.584 306.594 258.426 306.815 258.269L305.399 257.236C305.17 257.399 304.942 257.563 304.716 257.73L306.158 258.745ZM306.712 309.318C287.171 295.565 286.922 272.923 306.158 258.745L304.716 257.73C284.697 272.486 284.955 296.051 305.293 310.364L306.712 309.318ZM376.924 308.547C357.688 322.725 326.254 323.07 306.712 309.318L305.293 310.364C325.631 324.677 358.346 324.318 378.365 309.562L376.924 308.547ZM377.568 308.063C377.356 308.226 377.141 308.387 376.924 308.547L378.365 309.562C378.591 309.395 378.815 309.227 379.036 309.058L377.568 308.063ZM379.012 308.038L306.816 257.229L305.397 258.275L377.593 309.084L379.012 308.038Z" fill="black" mask="url(#path-42-inside-4_352_1656)"/>
<path d="M331.343 300.261L379.405 300.261L378.297 308.567L331.343 308.567V300.261Z" fill="black"/>
<mask id="path-45-inside-5_352_1656" fill="white">
<path fill-rule="evenodd" clip-rule="evenodd" d="M307.197 249.406C307.197 249.406 307.197 249.406 307.197 249.407C287.57 263.873 287.823 286.977 307.763 301.01C327.703 315.042 359.778 314.691 379.405 300.224C379.405 300.224 379.405 300.223 379.405 300.223L307.197 249.406Z"/>
</mask>
<path fill-rule="evenodd" clip-rule="evenodd" d="M307.197 249.406C307.197 249.406 307.197 249.406 307.197 249.407C287.57 263.873 287.823 286.977 307.763 301.01C327.703 315.042 359.778 314.691 379.405 300.224C379.405 300.224 379.405 300.223 379.405 300.223L307.197 249.406Z" fill="white"/>
<path d="M307.197 249.406L307.907 248.883L307.186 248.376L306.476 248.899L307.197 249.406ZM379.405 300.223L380.126 300.731L380.836 300.208L380.115 299.7L379.405 300.223ZM307.918 249.914C307.918 249.914 307.918 249.914 307.918 249.914L306.476 248.899C306.476 248.899 306.476 248.899 306.476 248.899L307.918 249.914ZM308.473 300.487C288.931 286.734 288.683 264.092 307.918 249.914L306.476 248.899C286.457 263.655 286.716 287.22 307.053 301.533L308.473 300.487ZM378.684 299.716C359.449 313.894 328.014 314.239 308.473 300.487L307.053 301.533C327.391 315.846 360.107 315.487 380.125 300.731L378.684 299.716ZM378.684 299.716C378.684 299.716 378.684 299.716 378.684 299.716C378.684 299.716 378.684 299.716 378.684 299.716C378.684 299.716 378.684 299.716 378.684 299.716C378.684 299.716 378.684 299.716 378.684 299.716C378.684 299.716 378.684 299.716 378.684 299.716C378.684 299.716 378.684 299.716 378.684 299.716C378.684 299.716 378.684 299.716 378.684 299.716C378.684 299.716 378.684 299.716 378.684 299.716C378.684 299.716 378.684 299.716 378.684 299.716C378.684 299.716 378.684 299.716 378.684 299.716C378.684 299.716 378.684 299.716 378.684 299.716C378.684 299.716 378.684 299.716 378.684 299.716C378.684 299.716 378.684 299.716 378.684 299.716C378.684 299.716 378.684 299.716 378.684 299.716C378.684 299.716 378.684 299.716 378.684 299.716C378.684 299.716 378.684 299.716 378.684 299.716C378.684 299.716 378.684 299.716 378.684 299.716C378.684 299.716 378.684 299.716 378.684 299.716C378.684 299.716 378.684 299.716 378.684 299.716C378.684 299.716 378.684 299.716 378.684 299.716C378.684 299.716 378.684 299.716 378.684 299.716C378.684 299.716 378.684 299.716 378.684 299.716C378.684 299.716 378.684 299.716 378.684 299.716C378.684 299.716 378.684 299.716 378.684 299.716C378.684 299.716 378.684 299.716 378.684 299.716C378.684 299.716 378.684 299.716 378.684 299.716C378.684 299.716 378.684 299.716 378.684 299.716C378.684 299.716 378.684 299.716 378.684 299.716C378.684 299.716 378.684 299.716 378.684 299.716C378.684 299.716 378.684 299.716 378.684 299.716C378.684 299.716 378.684 299.716 378.684 299.716C378.684 299.716 378.684 299.716 378.684 299.716C378.684 299.716 378.684 299.716 378.684 299.716C378.684 299.716 378.684 299.716 378.684 299.716C378.684 299.716 378.684 299.716 378.684 299.716C378.684 299.716 378.684 299.716 378.684 299.716C378.684 299.716 378.684 299.716 378.684 299.716C378.684 299.716 378.684 299.716 378.684 299.716C378.684 299.716 378.684 299.716 378.684 299.716C378.684 299.716 378.684 299.716 378.684 299.716C378.684 299.716 378.684 299.716 378.684 299.716C378.684 299.716 378.684 299.716 378.684 299.716C378.684 299.716 378.684 299.716 378.684 299.716C378.684 299.716 378.684 299.716 378.684 299.716C378.684 299.716 378.684 299.716 378.684 299.716C378.684 299.716 378.684 299.716 378.684 299.716C378.684 299.716 378.684 299.716 378.684 299.716C378.684 299.716 378.684 299.716 378.684 299.716C378.684 299.716 378.684 299.716 378.684 299.716C378.684 299.716 378.684 299.716 378.684 299.716C378.684 299.716 378.684 299.716 378.684 299.716C378.684 299.716 378.684 299.716 378.684 299.716C378.684 299.716 378.684 299.716 378.684 299.716C378.684 299.716 378.684 299.716 378.684 299.716C378.684 299.716 378.684 299.716 378.684 299.716C378.684 299.716 378.684 299.716 378.684 299.716C378.684 299.716 378.684 299.716 378.684 299.716C378.684 299.716 378.684 299.716 378.684 299.716C378.684 299.716 378.684 299.716 378.684 299.716C378.684 299.716 378.684 299.716 378.684 299.716C378.684 299.716 378.684 299.716 378.684 299.716C378.684 299.716 378.684 299.716 378.684 299.716C378.684 299.716 378.684 299.716 378.684 299.716C378.684 299.716 378.684 299.716 378.684 299.716C378.684 299.716 378.684 299.716 378.684 299.716C378.684 299.716 378.684 299.716 378.684 299.716C378.684 299.716 378.684 299.716 378.684 299.716C378.684 299.716 378.684 299.716 378.684 299.716C378.684 299.716 378.684 299.716 378.684 299.716C378.684 299.716 378.684 299.716 378.684 299.716C378.684 299.716 378.684 299.716 378.684 299.716C378.684 299.716 378.684 299.716 378.684 299.716C378.684 299.716 378.684 299.716 378.684 299.716C378.684 299.716 378.684 299.716 378.684 299.716C378.684 299.716 378.684 299.716 378.684 299.716C378.684 299.716 378.684 299.716 378.684 299.716C378.684 299.716 378.684 299.716 378.684 299.716C378.684 299.716 378.684 299.716 378.684 299.716C378.684 299.716 378.684 299.716 378.684 299.716C378.684 299.716 378.684 299.716 378.684 299.716C378.684 299.716 378.684 299.716 378.684 299.716C378.684 299.716 378.684 299.716 378.684 299.716C378.684 299.716 378.684 299.716 378.684 299.716C378.684 299.716 378.684 299.716 378.684 299.716C378.684 299.716 378.684 299.716 378.684 299.716C378.684 299.716 378.684 299.716 378.684 299.716C378.684 299.716 378.684 299.716 378.684 299.716C378.684 299.716 378.684 299.716 378.684 299.716C378.684 299.716 378.684 299.716 378.684 299.716C378.684 299.716 378.684 299.716 378.684 299.716C378.684 299.716 378.684 299.716 378.684 299.716C378.684 299.716 378.684 299.716 378.684 299.716C378.684 299.716 378.684 299.716 378.684 299.716C378.684 299.716 378.684 299.716 378.684 299.716C378.684 299.716 378.684 299.716 378.684 299.716C378.684 299.716 378.684 299.716 378.684 299.716C378.684 299.716 378.684 299.716 378.684 299.716C378.684 299.716 378.684 299.716 378.684 299.716C378.684 299.716 378.684 299.716 378.684 299.716C378.684 299.716 378.684 299.716 378.684 299.716C378.684 299.716 378.684 299.716 378.684 299.716C378.684 299.716 378.684 299.716 378.684 299.716C378.684 299.716 378.684 299.716 378.684 299.716C378.684 299.716 378.684 299.716 378.684 299.716C378.684 299.716 378.684 299.716 378.684 299.716C378.684 299.716 378.684 299.716 378.684 299.716C378.684 299.716 378.684 299.716 378.684 299.716C378.684 299.716 378.684 299.716 378.684 299.716C378.684 299.716 378.684 299.716 378.684 299.716C378.684 299.716 378.684 299.716 378.684 299.716C378.684 299.716 378.684 299.716 378.684 299.716C378.684 299.716 378.684 299.716 378.684 299.716C378.684 299.716 378.684 299.716 378.684 299.716C378.684 299.716 378.684 299.716 378.684 299.716C378.684 299.716 378.684 299.716 378.684 299.716C378.684 299.716 378.684 299.716 378.684 299.716C378.684 299.716 378.684 299.716 378.684 299.716C378.684 299.716 378.684 299.716 378.684 299.716C378.684 299.716 378.684 299.716 378.684 299.716C378.684 299.716 378.684 299.716 378.684 299.716C378.684 299.716 378.684 299.716 378.684 299.716C378.684 299.716 378.684 299.716 378.684 299.716C378.684 299.716 378.684 299.716 378.684 299.716C378.684 299.716 378.684 299.716 378.684 299.716C378.684 299.716 378.684 299.716 378.684 299.716C378.684 299.716 378.684 299.716 378.684 299.716C378.684 299.716 378.684 299.716 378.684 299.716C378.684 299.716 378.684 299.716 378.684 299.716C378.684 299.716 378.684 299.716 378.684 299.716C378.684 299.716 378.684 299.716 378.684 299.716C378.684 299.716 378.684 299.716 378.684 299.716C378.684 299.716 378.684 299.716 378.684 299.716C378.684 299.716 378.684 299.716 378.684 299.716C378.684 299.716 378.684 299.716 378.684 299.716C378.684 299.716 378.684 299.716 378.684 299.716C378.684 299.716 378.684 299.716 378.684 299.716C378.684 299.716 378.684 299.716 378.684 299.716C378.684 299.716 378.684 299.716 378.684 299.716C378.684 299.716 378.684 299.716 378.684 299.716C378.684 299.716 378.684 299.716 378.684 299.716C378.684 299.716 378.684 299.716 378.684 299.716C378.684 299.716 378.684 299.716 378.684 299.716C378.684 299.716 378.684 299.716 378.684 299.716C378.684 299.716 378.684 299.716 378.684 299.716C378.684 299.716 378.684 299.716 378.684 299.716C378.684 299.716 378.684 299.716 378.684 299.716C378.684 299.716 378.684 299.716 378.684 299.716C378.684 299.716 378.684 299.716 378.684 299.716C378.684 299.716 378.684 299.716 378.684 299.716C378.684 299.716 378.684 299.716 378.684 299.716C378.684 299.716 378.684 299.716 378.684 299.716C378.684 299.716 378.684 299.716 378.684 299.716C378.684 299.716 378.684 299.716 378.684 299.716C378.684 299.716 378.684 299.716 378.684 299.716C378.684 299.716 378.684 299.716 378.684 299.716C378.684 299.716 378.684 299.716 378.684 299.716C378.684 299.716 378.684 299.716 378.684 299.716C378.684 299.716 378.684 299.716 378.684 299.716C378.684 299.716 378.684 299.716 378.684 299.716C378.684 299.716 378.684 299.716 378.684 299.716C378.684 299.716 378.684 299.716 378.684 299.716C378.684 299.716 378.684 299.716 378.684 299.716C378.684 299.716 378.684 299.716 378.684 299.716C378.684 299.716 378.684 299.716 378.684 299.716C378.684 299.716 378.684 299.716 378.684 299.716C378.684 299.716 378.684 299.716 378.684 299.716C378.684 299.716 378.684 299.716 378.684 299.716C378.684 299.716 378.684 299.716 378.684 299.716C378.684 299.716 378.684 299.716 378.684 299.716C378.684 299.716 378.684 299.716 378.684 299.716C378.684 299.716 378.684 299.716 378.684 299.716C378.684 299.716 378.684 299.716 378.684 299.716C378.684 299.716 378.684 299.716 378.684 299.716C378.684 299.716 378.684 299.716 378.684 299.716C378.684 299.716 378.684 299.716 378.684 299.716C378.684 299.716 378.684 299.716 378.684 299.716C378.684 299.716 378.684 299.716 378.684 299.716C378.684 299.716 378.684 299.716 378.684 299.716C378.684 299.716 378.684 299.716 378.684 299.716C378.684 299.716 378.684 299.716 378.684 299.716C378.684 299.716 378.684 299.716 378.684 299.716C378.684 299.716 378.684 299.716 378.684 299.716C378.684 299.716 378.684 299.716 378.684 299.716C378.684 299.716 378.684 299.716 378.684 299.716C378.684 299.716 378.684 299.716 378.684 299.716C378.684 299.716 378.684 299.716 378.684 299.716C378.684 299.716 378.684 299.716 378.684 299.716C378.684 299.716 378.684 299.716 378.684 299.716C378.684 299.716 378.684 299.716 378.684 299.716C378.684 299.716 378.684 299.716 378.684 299.716C378.684 299.716 378.684 299.716 378.684 299.716C378.684 299.716 378.684 299.716 378.684 299.716C378.684 299.716 378.684 299.716 378.684 299.716C378.684 299.716 378.684 299.716 378.684 299.716C378.684 299.716 378.684 299.716 378.684 299.716C378.684 299.716 378.684 299.716 378.684 299.716C378.684 299.716 378.684 299.716 378.684 299.716C378.684 299.716 378.684 299.716 378.684 299.716C378.684 299.716 378.684 299.716 378.684 299.716C378.684 299.716 378.684 299.716 378.684 299.716C378.684 299.716 378.684 299.716 378.684 299.716C378.684 299.716 378.684 299.716 378.684 299.716C378.684 299.716 378.684 299.716 378.684 299.716C378.684 299.716 378.684 299.716 378.684 299.716C378.684 299.716 378.684 299.716 378.684 299.716C378.684 299.716 378.684 299.716 378.684 299.716C378.684 299.716 378.684 299.716 378.684 299.716C378.684 299.716 378.684 299.716 378.684 299.716C378.684 299.716 378.684 299.716 378.684 299.716C378.684 299.716 378.684 299.716 378.684 299.716C378.684 299.716 378.684 299.716 378.684 299.716C378.684 299.716 378.684 299.716 378.684 299.716C378.684 299.716 378.684 299.716 378.684 299.716C378.684 299.716 378.684 299.716 378.684 299.716C378.684 299.716 378.684 299.716 378.684 299.716C378.684 299.716 378.684 299.716 378.684 299.716C378.684 299.716 378.684 299.716 378.684 299.716C378.684 299.716 378.684 299.716 378.684 299.716C378.684 299.716 378.684 299.716 378.684 299.716C378.684 299.716 378.684 299.716 378.684 299.716C378.684 299.716 378.684 299.716 378.684 299.716C378.684 299.716 378.684 299.716 378.684 299.716C378.684 299.716 378.684 299.716 378.684 299.716C378.684 299.716 378.684 299.716 378.684 299.716C378.684 299.716 378.684 299.716 378.684 299.716C378.684 299.716 378.684 299.716 378.684 299.716C378.684 299.716 378.684 299.716 378.684 299.716C378.684 299.716 378.684 299.716 378.684 299.716C378.684 299.716 378.684 299.716 378.684 299.716C378.684 299.716 378.684 299.716 378.684 299.716C378.684 299.716 378.684 299.716 378.684 299.716C378.684 299.716 378.684 299.716 378.684 299.716C378.684 299.716 378.684 299.716 378.684 299.716C378.684 299.716 378.684 299.716 378.684 299.716C378.684 299.716 378.684 299.716 378.684 299.716C378.684 299.716 378.684 299.716 378.684 299.716C378.684 299.716 378.684 299.716 378.684 299.716C378.684 299.716 378.684 299.716 378.684 299.716C378.684 299.716 378.684 299.716 378.684 299.716C378.684 299.716 378.684 299.716 378.684 299.716C378.684 299.716 378.684 299.716 378.684 299.716C378.684 299.716 378.684 299.716 378.684 299.716C378.684 299.716 378.684 299.716 378.684 299.716C378.684 299.716 378.684 299.716 378.684 299.716C378.684 299.716 378.684 299.716 378.684 299.716C378.684 299.716 378.684 299.716 378.684 299.716C378.684 299.716 378.684 299.716 378.684 299.716C378.684 299.716 378.684 299.716 378.684 299.716C378.684 299.716 378.684 299.716 378.684 299.716C378.684 299.716 378.684 299.716 378.684 299.716C378.684 299.716 378.684 299.716 378.684 299.716C378.684 299.716 378.684 299.716 378.684 299.716C378.684 299.716 378.684 299.716 378.684 299.716C378.684 299.716 378.684 299.716 378.684 299.716C378.684 299.716 378.684 299.716 378.684 299.716C378.684 299.716 378.684 299.716 378.684 299.716C378.684 299.716 378.684 299.716 378.684 299.716C378.684 299.716 378.684 299.716 378.684 299.716C378.684 299.716 378.684 299.716 378.684 299.716C378.684 299.716 378.684 299.716 378.684 299.716C378.684 299.716 378.684 299.716 378.684 299.716C378.684 299.716 378.684 299.716 378.684 299.716C378.684 299.716 378.684 299.716 378.684 299.716C378.684 299.716 378.684 299.716 378.684 299.716C378.684 299.716 378.684 299.716 378.684 299.716C378.684 299.716 378.684 299.716 378.684 299.716C378.684 299.716 378.684 299.716 378.684 299.716C378.684 299.716 378.684 299.716 378.684 299.716C378.684 299.716 378.684 299.716 378.684 299.716C378.684 299.716 378.684 299.716 378.684 299.716C378.684 299.716 378.684 299.716 378.684 299.716C378.684 299.716 378.684 299.716 378.684 299.716C378.684 299.716 378.684 299.716 378.684 299.716C378.684 299.716 378.684 299.716 378.684 299.716C378.684 299.716 378.684 299.716 378.684 299.716C378.684 299.716 378.684 299.716 378.684 299.716C378.684 299.716 378.684 299.716 378.684 299.716C378.684 299.716 378.684 299.716 378.684 299.716C378.684 299.716 378.684 299.716 378.684 299.716C378.684 299.716 378.684 299.716 378.684 299.716C378.684 299.716 378.684 299.716 378.684 299.716C378.684 299.716 378.684 299.716 378.684 299.716C378.684 299.716 378.684 299.716 378.684 299.716C378.684 299.716 378.684 299.716 378.684 299.716C378.684 299.716 378.684 299.716 378.684 299.716C378.684 299.716 378.684 299.716 378.684 299.716C378.684 299.716 378.684 299.716 378.684 299.716C378.684 299.716 378.684 299.716 378.684 299.716C378.684 299.716 378.684 299.716 378.684 299.716C378.684 299.716 378.684 299.716 378.684 299.716C378.684 299.716 378.684 299.716 378.684 299.716C378.684 299.716 378.684 299.716 378.684 299.716C378.684 299.716 378.684 299.716 378.684 299.716C378.684 299.716 378.684 299.716 378.684 299.716C378.684 299.716 378.684 299.716 378.684 299.716C378.684 299.716 378.684 299.716 378.684 299.716C378.684 299.716 378.684 299.716 378.684 299.716C378.684 299.716 378.684 299.716 378.684 299.716C378.684 299.716 378.684 299.716 378.684 299.716C378.684 299.716 378.684 299.716 378.684 299.716C378.684 299.716 378.684 299.716 378.684 299.716C378.684 299.716 378.684 299.716 378.684 299.716C378.684 299.716 378.684 299.716 378.684 299.716C378.684 299.716 378.684 299.716 378.684 299.716C378.684 299.716 378.684 299.716 378.684 299.716C378.684 299.716 378.684 299.716 378.684 299.716C378.684 299.716 378.684 299.716 378.684 299.716C378.684 299.716 378.684 299.716 378.684 299.716C378.684 299.716 378.684 299.716 378.684 299.716C378.684 299.716 378.684 299.716 378.684 299.716C378.684 299.716 378.684 299.716 378.684 299.716C378.684 299.716 378.684 299.716 378.684 299.716C378.684 299.716 378.684 299.716 378.684 299.716C378.684 299.716 378.684 299.716 378.684 299.716C378.684 299.716 378.684 299.716 378.684 299.716C378.684 299.716 378.684 299.716 378.684 299.716C378.684 299.716 378.684 299.716 378.684 299.716C378.684 299.716 378.684 299.716 378.684 299.716C378.684 299.716 378.684 299.716 378.684 299.716C378.684 299.716 378.684 299.716 378.684 299.716C378.684 299.716 378.684 299.716 378.684 299.716C378.684 299.716 378.684 299.716 378.684 299.716C378.684 299.716 378.684 299.716 378.684 299.716C378.684 299.716 378.684 299.716 378.684 299.716C378.684 299.716 378.684 299.716 378.684 299.716C378.684 299.716 378.684 299.716 378.684 299.716C378.684 299.716 378.684 299.716 378.684 299.716C378.684 299.716 378.684 299.716 378.684 299.716C378.684 299.716 378.684 299.716 378.684 299.716C378.684 299.716 378.684 299.716 378.684 299.716C378.684 299.716 378.684 299.716 378.684 299.716C378.684 299.716 378.684 299.716 378.684 299.716C378.684 299.716 378.684 299.716 378.684 299.716C378.684 299.716 378.684 299.716 378.684 299.716C378.684 299.716 378.684 299.716 378.684 299.716C378.684 299.716 378.684 299.716 378.684 299.716C378.684 299.716 378.684 299.716 378.684 299.716C378.684 299.716 378.684 299.716 378.684 299.716C378.684 299.716 378.684 299.716 378.684 299.716C378.684 299.716 378.684 299.716 378.684 299.716C378.684 299.716 378.684 299.716 378.684 299.716C378.684 299.716 378.684 299.716 378.684 299.716C378.684 299.716 378.684 299.716 378.684 299.716C378.684 299.716 378.684 299.716 378.684 299.716C378.684 299.716 378.684 299.716 378.684 299.716C378.684 299.716 378.684 299.716 378.684 299.716C378.684 299.716 378.684 299.716 378.684 299.716C378.684 299.716 378.684 299.716 378.684 299.716C378.684 299.716 378.684 299.716 378.684 299.716C378.684 299.716 378.684 299.716 378.684 299.716C378.684 299.716 378.684 299.716 378.684 299.716C378.684 299.716 378.684 299.716 378.684 299.716C378.684 299.716 378.684 299.716 378.684 299.716C378.684 299.716 378.684 299.716 378.684 299.716C378.684 299.716 378.684 299.716 378.684 299.716C378.684 299.716 378.684 299.716 378.684 299.716C378.684 299.716 378.684 299.716 378.684 299.716C378.684 299.716 378.684 299.716 378.684 299.716C378.684 299.716 378.684 299.716 378.684 299.716C378.684 299.716 378.684 299.716 378.684 299.716C378.684 299.716 378.684 299.716 378.684 299.716C378.684 299.716 378.684 299.716 378.684 299.716C378.684 299.716 378.684 299.716 378.684 299.716C378.684 299.716 378.684 299.716 378.684 299.716C378.684 299.716 378.684 299.716 378.684 299.716C378.684 299.716 378.684 299.716 378.684 299.716C378.684 299.716 378.684 299.716 378.684 299.716C378.684 299.716 378.684 299.716 378.684 299.716C378.684 299.716 378.684 299.716 378.684 299.716C378.684 299.716 378.684 299.716 378.684 299.716C378.684 299.716 378.684 299.716 378.684 299.716C378.684 299.716 378.684 299.716 378.684 299.716C378.684 299.716 378.684 299.716 378.684 299.716C378.684 299.716 378.684 299.716 378.684 299.716C378.684 299.716 378.684 299.716 378.684 299.716C378.684 299.716 378.684 299.716 378.684 299.716C378.684 299.716 378.684 299.716 378.684 299.716C378.684 299.716 378.684 299.716 378.684 299.716C378.684 299.716 378.684 299.716 378.684 299.716C378.684 299.716 378.684 299.716 378.684 299.716C378.684 299.716 378.684 299.716 378.684 299.716C378.684 299.716 378.684 299.716 378.684 299.716C378.684 299.716 378.684 299.716 378.684 299.716C378.684 299.716 378.684 299.716 378.684 299.716C378.684 299.716 378.684 299.716 378.684 299.716C378.684 299.716 378.684 299.716 378.684 299.716C378.684 299.716 378.684 299.716 378.684 299.716C378.684 299.716 378.684 299.716 378.684 299.716C378.684 299.716 378.684 299.716 378.684 299.716C378.684 299.716 378.684 299.716 378.684 299.716C378.684 299.716 378.684 299.716 378.684 299.716C378.684 299.716 378.684 299.716 378.684 299.716C378.684 299.716 378.684 299.716 378.684 299.716C378.684 299.716 378.684 299.716 378.684 299.716C378.684 299.716 378.684 299.716 378.684 299.716C378.684 299.716 378.684 299.716 378.684 299.716C378.684 299.716 378.684 299.716 378.684 299.716C378.684 299.716 378.684 299.716 378.684 299.716C378.684 299.716 378.684 299.716 378.684 299.716C378.684 299.716 378.684 299.716 378.684 299.716C378.684 299.716 378.684 299.716 378.684 299.716C378.684 299.716 378.684 299.716 378.684 299.716C378.684 299.716 378.684 299.716 378.684 299.716C378.684 299.716 378.684 299.716 378.684 299.716C378.684 299.716 378.684 299.716 378.684 299.716C378.684 299.716 378.684 299.716 378.684 299.716C378.684 299.716 378.684 299.716 378.684 299.716C378.684 299.716 378.684 299.716 378.684 299.716C378.684 299.716 378.684 299.716 378.684 299.716C378.684 299.716 378.684 299.716 378.684 299.716C378.684 299.716 378.684 299.716 378.684 299.716C378.684 299.716 378.684 299.716 378.684 299.716C378.684 299.716 378.684 299.716 378.684 299.716C378.684 299.716 378.684 299.716 378.684 299.716C378.684 299.716 378.684 299.716 378.684 299.716C378.684 299.716 378.684 299.716 378.684 299.716C378.684 299.716 378.684 299.716 378.684 299.716C378.684 299.716 378.684 299.716 378.684 299.716C378.684 299.716 378.684 299.716 378.684 299.716C378.684 299.716 378.684 299.716 378.684 299.716C378.684 299.716 378.684 299.716 378.684 299.716C378.684 299.716 378.684 299.716 378.684 299.716C378.684 299.716 378.684 299.716 378.684 299.716C378.684 299.716 378.684 299.716 378.684 299.716C378.684 299.716 378.684 299.716 378.684 299.716C378.684 299.716 378.684 299.716 378.684 299.716C378.684 299.716 378.684 299.716 378.684 299.716C378.684 299.716 378.684 299.716 378.684 299.716C378.684 299.716 378.684 299.716 378.684 299.716C378.684 299.716 378.684 299.716 378.684 299.716C378.684 299.716 378.684 299.716 378.684 299.716C378.684 299.716 378.684 299.716 378.684 299.716C378.684 299.716 378.684 299.716 378.684 299.716C378.684 299.716 378.684 299.716 378.684 299.716C378.684 299.716 378.684 299.716 378.684 299.716C378.684 299.716 378.684 299.716 378.684 299.716C378.684 299.716 378.684 299.716 378.684 299.716C378.684 299.716 378.684 299.716 378.684 299.716C378.684 299.716 378.684 299.716 378.684 299.716C378.684 299.716 378.684 299.716 378.684 299.716C378.684 299.716 378.684 299.716 378.684 299.716C378.684 299.716 378.684 299.716 378.684 299.716C378.684 299.716 378.684 299.716 378.684 299.716C378.684 299.716 378.684 299.716 378.684 299.716C378.684 299.716 378.684 299.716 378.684 299.716C378.684 299.716 378.684 299.716 378.684 299.716C378.684 299.716 378.684 299.716 378.684 299.716C378.684 299.716 378.684 299.716 378.684 299.716C378.684 299.716 378.684 299.716 378.684 299.716C378.684 299.716 378.684 299.716 378.684 299.716C378.684 299.716 378.684 299.716 378.684 299.716C378.684 299.716 378.684 299.716 378.684 299.716C378.684 299.716 378.684 299.716 378.684 299.716C378.684 299.716 378.684 299.716 378.684 299.716C378.684 299.716 378.684 299.716 378.684 299.716C378.684 299.716 378.684 299.716 378.684 299.716C378.684 299.716 378.684 299.716 378.684 299.716C378.684 299.716 378.684 299.716 378.684 299.716C378.684 299.716 378.684 299.716 378.684 299.716C378.684 299.716 378.684 299.716 378.684 299.716C378.684 299.716 378.684 299.716 378.684 299.716C378.684 299.716 378.684 299.716 378.684 299.716C378.684 299.716 378.684 299.716 378.684 299.716C378.684 299.716 378.684 299.716 378.684 299.716C378.684 299.716 378.684 299.716 378.684 299.716C378.684 299.716 378.684 299.716 378.684 299.716C378.684 299.716 378.684 299.716 378.684 299.716C378.684 299.716 378.684 299.716 378.684 299.716C378.684 299.716 378.684 299.716 378.684 299.716C378.684 299.716 378.684 299.716 378.684 299.716C378.684 299.716 378.684 299.716 378.684 299.716C378.684 299.716 378.684 299.716 378.684 299.716C378.684 299.716 378.684 299.716 378.684 299.716C378.684 299.716 378.684 299.716 378.684 299.716C378.684 299.716 378.684 299.716 378.684 299.716C378.684 299.716 378.684 299.716 378.684 299.716C378.684 299.716 378.684 299.716 378.684 299.716C378.684 299.716 378.684 299.716 378.684 299.716C378.684 299.716 378.684 299.716 378.684 299.716C378.684 299.716 378.684 299.716 378.684 299.716C378.684 299.716 378.684 299.716 378.684 299.716C378.684 299.716 378.684 299.716 378.684 299.716C378.684 299.716 378.684 299.716 378.684 299.716C378.684 299.716 378.684 299.716 378.684 299.716C378.684 299.716 378.684 299.716 378.684 299.716C378.684 299.716 378.684 299.716 378.684 299.716C378.684 299.716 378.684 299.716 378.684 299.716C378.684 299.716 378.684 299.716 378.684 299.716C378.684 299.716 378.684 299.716 378.684 299.716C378.684 299.716 378.684 299.716 378.684 299.716C378.684 299.716 378.684 299.716 378.684 299.716C378.684 299.716 378.684 299.716 378.684 299.716C378.684 299.716 378.684 299.716 378.684 299.716C378.684 299.716 378.684 299.716 378.684 299.716C378.684 299.716 378.684 299.716 378.684 299.716C378.684 299.716 378.684 299.716 378.684 299.716C378.684 299.716 378.684 299.716 378.684 299.716C378.684 299.716 378.684 299.716 378.684 299.716C378.684 299.716 378.684 299.716 378.684 299.716C378.684 299.716 378.684 299.716 378.684 299.716C378.684 299.716 378.684 299.716 378.684 299.716C378.684 299.716 378.684 299.716 378.684 299.716C378.684 299.716 378.684 299.716 378.684 299.716C378.684 299.716 378.684 299.716 378.684 299.716C378.684 299.716 378.684 299.716 378.684 299.716C378.684 299.716 378.684 299.716 378.684 299.716C378.684 299.716 378.684 299.716 378.684 299.716C378.684 299.716 378.684 299.716 378.684 299.716C378.684 299.716 378.684 299.716 378.684 299.716C378.684 299.716 378.684 299.716 378.684 299.716C378.684 299.716 378.684 299.716 378.684 299.716C378.684 299.716 378.684 299.716 378.684 299.716L380.125 300.731C380.125 300.731 380.125 300.731 380.125 300.731C380.125 300.731 380.125 300.731 380.125 300.731C380.125 300.731 380.125 300.731 380.125 300.731C380.125 300.731 380.125 300.731 380.125 300.731C380.125 300.731 380.125 300.731 380.125 300.731C380.125 300.731 380.125 300.731 380.125 300.731C380.125 300.731 380.125 300.731 380.125 300.731C380.126 300.731 380.126 300.731 380.126 300.731C380.126 300.731 380.126 300.731 380.126 300.731C380.126 300.731 380.126 300.731 380.126 300.731C380.126 300.731 380.126 300.731 380.126 300.731C380.126 300.731 380.126 300.731 380.126 300.731C380.126 300.731 380.126 300.731 380.126 300.731C380.126 300.731 380.126 300.731 380.126 300.731C380.126 300.731 380.126 300.731 380.126 300.731C380.126 300.731 380.126 300.731 380.126 300.731C380.126 300.731 380.126 300.731 380.126 300.731C380.126 300.731 380.126 300.731 380.126 300.731C380.126 300.731 380.126 300.731 380.126 300.731C380.126 300.731 380.126 300.731 380.126 300.731C380.126 300.731 380.126 300.731 380.126 300.731C380.126 300.731 380.126 300.731 380.126 300.731C380.126 300.731 380.126 300.731 380.126 300.731C380.126 300.731 380.126 300.731 380.126 300.731C380.126 300.731 380.126 300.731 380.126 300.731C380.126 300.731 380.126 300.731 380.126 300.731C380.126 300.731 380.126 300.731 380.126 300.731C380.126 300.731 380.126 300.731 380.126 300.731C380.126 300.731 380.126 300.731 380.126 300.731C380.126 300.731 380.126 300.731 380.126 300.731C380.126 300.731 380.126 300.731 380.126 300.731C380.126 300.731 380.126 300.731 380.126 300.731C380.126 300.731 380.126 300.731 380.126 300.731C380.126 300.731 380.126 300.731 380.126 300.731C380.126 300.731 380.126 300.731 380.126 300.731C380.126 300.731 380.126 300.731 380.126 300.731C380.126 300.731 380.126 300.731 380.126 300.731C380.126 300.731 380.126 300.731 380.126 300.731C380.126 300.731 380.126 300.731 380.126 300.731C380.126 300.731 380.126 300.731 380.126 300.731C380.126 300.731 380.126 300.731 380.126 300.731C380.126 300.731 380.126 300.731 380.126 300.731C380.126 300.731 380.126 300.731 380.126 300.731C380.126 300.731 380.126 300.731 380.126 300.731C380.126 300.731 380.126 300.731 380.126 300.731C380.126 300.731 380.126 300.731 380.126 300.731C380.126 300.731 380.126 300.731 380.126 300.731C380.126 300.731 380.126 300.731 380.126 300.731C380.126 300.731 380.126 300.731 380.126 300.731C380.126 300.731 380.126 300.731 380.126 300.731C380.126 300.731 380.126 300.731 380.126 300.731C380.126 300.731 380.126 300.731 380.126 300.731C380.126 300.731 380.126 300.731 380.126 300.731C380.126 300.731 380.126 300.731 380.126 300.731C380.126 300.731 380.126 300.731 380.126 300.731C380.126 300.731 380.126 300.731 380.126 300.731C380.126 300.731 380.126 300.731 380.126 300.731C380.126 300.731 380.126 300.731 380.126 300.731C380.126 300.731 380.126 300.731 380.126 300.731C380.126 300.731 380.126 300.731 380.126 300.731C380.126 300.731 380.126 300.731 380.126 300.731C380.126 300.731 380.126 300.731 380.126 300.731C380.126 300.731 380.126 300.731 380.126 300.731C380.126 300.731 380.126 300.731 380.126 300.731C380.126 300.731 380.126 300.731 380.126 300.731C380.126 300.731 380.126 300.731 380.126 300.731C380.126 300.731 380.126 300.731 380.126 300.731C380.126 300.731 380.126 300.731 380.126 300.731C380.126 300.731 380.126 300.731 380.126 300.731C380.126 300.731 380.126 300.731 380.126 300.731C380.126 300.731 380.126 300.731 380.126 300.731C380.126 300.731 380.126 300.731 380.126 300.731C380.126 300.731 380.126 300.731 380.126 300.731C380.126 300.731 380.126 300.731 380.126 300.731C380.126 300.731 380.126 300.731 380.126 300.731C380.126 300.731 380.126 300.731 380.126 300.731C380.126 300.731 380.126 300.731 380.126 300.731C380.126 300.731 380.126 300.731 380.126 300.731C380.126 300.731 380.126 300.731 380.126 300.731C380.126 300.731 380.126 300.731 380.126 300.731C380.126 300.731 380.126 300.731 380.126 300.731C380.126 300.731 380.126 300.731 380.126 300.731C380.126 300.731 380.126 300.731 380.126 300.731C380.126 300.731 380.126 300.731 380.126 300.731C380.126 300.731 380.126 300.731 380.126 300.731C380.126 300.731 380.126 300.731 380.126 300.731C380.126 300.731 380.126 300.731 380.126 300.731C380.126 300.731 380.126 300.731 380.126 300.731C380.126 300.731 380.126 300.731 380.126 300.731C380.126 300.731 380.126 300.731 380.126 300.731C380.126 300.731 380.126 300.731 380.126 300.731C380.126 300.731 380.126 300.731 380.126 300.731C380.126 300.731 380.126 300.731 380.126 300.731C380.126 300.731 380.126 300.731 380.126 300.731C380.126 300.731 380.126 300.731 380.126 300.731C380.126 300.731 380.126 300.731 380.126 300.731C380.126 300.731 380.126 300.731 380.126 300.731C380.126 300.731 380.126 300.731 380.126 300.731C380.126 300.731 380.126 300.731 380.126 300.731C380.126 300.731 380.126 300.731 380.126 300.731C380.126 300.731 380.126 300.731 380.126 300.731C380.126 300.731 380.126 300.731 380.126 300.731C380.126 300.731 380.126 300.731 380.126 300.731C380.126 300.731 380.126 300.731 380.126 300.731C380.126 300.731 380.126 300.731 380.126 300.731C380.126 300.731 380.126 300.731 380.126 300.731C380.126 300.731 380.126 300.731 380.126 300.731C380.126 300.731 380.126 300.731 380.126 300.731C380.126 300.731 380.126 300.731 380.126 300.731C380.126 300.731 380.126 300.731 380.126 300.731C380.126 300.731 380.126 300.731 380.126 300.731C380.126 300.731 380.126 300.731 380.126 300.731C380.126 300.731 380.126 300.731 380.126 300.731C380.126 300.731 380.126 300.731 380.126 300.731C380.126 300.731 380.126 300.731 380.126 300.731C380.126 300.731 380.126 300.731 380.126 300.731C380.126 300.731 380.126 300.731 380.126 300.731C380.126 300.731 380.126 300.731 380.126 300.731C380.126 300.731 380.126 300.731 380.126 300.731C380.126 300.731 380.126 300.731 380.126 300.731C380.126 300.731 380.126 300.731 380.126 300.731C380.126 300.731 380.126 300.731 380.126 300.731C380.126 300.731 380.126 300.731 380.126 300.731C380.126 300.731 380.126 300.731 380.126 300.731C380.126 300.731 380.126 300.731 380.126 300.731C380.126 300.731 380.126 300.731 380.126 300.731C380.126 300.731 380.126 300.731 380.126 300.731C380.126 300.731 380.126 300.731 380.126 300.731C380.126 300.731 380.126 300.731 380.126 300.731C380.126 300.731 380.126 300.731 380.126 300.731C380.126 300.731 380.126 300.731 380.126 300.731C380.126 300.731 380.126 300.731 380.126 300.731C380.126 300.731 380.126 300.731 380.126 300.731C380.126 300.731 380.126 300.731 380.126 300.731C380.126 300.731 380.126 300.731 380.126 300.731C380.126 300.731 380.126 300.731 380.126 300.731C380.126 300.731 380.126 300.731 380.126 300.731C380.126 300.731 380.126 300.731 380.126 300.731C380.126 300.731 380.126 300.731 380.126 300.731C380.126 300.731 380.126 300.731 380.126 300.731C380.126 300.731 380.126 300.731 380.126 300.731C380.126 300.731 380.126 300.731 380.126 300.731C380.126 300.731 380.126 300.731 380.126 300.731C380.126 300.731 380.126 300.731 380.126 300.731C380.126 300.731 380.126 300.731 380.126 300.731C380.126 300.731 380.126 300.731 380.126 300.731C380.126 300.731 380.126 300.731 380.126 300.731C380.126 300.731 380.126 300.731 380.126 300.731C380.126 300.731 380.126 300.731 380.126 300.731C380.126 300.731 380.126 300.731 380.126 300.731C380.126 300.731 380.126 300.731 380.126 300.731C380.126 300.731 380.126 300.731 380.126 300.731C380.126 300.731 380.126 300.731 380.126 300.731C380.126 300.731 380.126 300.731 380.126 300.731C380.126 300.731 380.126 300.731 380.126 300.731C380.126 300.731 380.126 300.731 380.126 300.731C380.126 300.731 380.126 300.731 380.126 300.731C380.126 300.731 380.126 300.731 380.126 300.731C380.126 300.731 380.126 300.731 380.126 300.731C380.126 300.731 380.126 300.731 380.126 300.731C380.126 300.731 380.126 300.731 380.126 300.731C380.126 300.731 380.126 300.731 380.126 300.731C380.126 300.731 380.126 300.731 380.126 300.731C380.126 300.731 380.126 300.731 380.126 300.731C380.126 300.731 380.126 300.731 380.126 300.731C380.126 300.731 380.126 300.731 380.126 300.731C380.126 300.731 380.126 300.731 380.126 300.731C380.126 300.731 380.126 300.731 380.126 300.731C380.126 300.731 380.126 300.731 380.126 300.731C380.126 300.731 380.126 300.731 380.126 300.731C380.126 300.731 380.126 300.731 380.126 300.731C380.126 300.731 380.126 300.731 380.126 300.731C380.126 300.731 380.126 300.731 380.126 300.731C380.126 300.731 380.126 300.731 380.126 300.731C380.126 300.731 380.126 300.731 380.126 300.731C380.126 300.731 380.126 300.731 380.126 300.731C380.126 300.731 380.126 300.731 380.126 300.731C380.126 300.731 380.126 300.731 380.126 300.731C380.126 300.731 380.126 300.731 380.126 300.731C380.126 300.731 380.126 300.731 380.126 300.731C380.126 300.731 380.126 300.731 380.126 300.731C380.126 300.731 380.126 300.731 380.126 300.731C380.126 300.731 380.126 300.731 380.126 300.731C380.126 300.731 380.126 300.731 380.126 300.731C380.126 300.731 380.126 300.731 380.126 300.731C380.126 300.731 380.126 300.731 380.126 300.731C380.126 300.731 380.126 300.731 380.126 300.731C380.126 300.731 380.126 300.731 380.126 300.731C380.126 300.731 380.126 300.731 380.126 300.731C380.126 300.731 380.126 300.731 380.126 300.731C380.126 300.731 380.126 300.731 380.126 300.731C380.126 300.731 380.126 300.731 380.126 300.731C380.126 300.731 380.126 300.731 380.126 300.731C380.126 300.731 380.126 300.731 380.126 300.731C380.126 300.731 380.126 300.731 380.126 300.731C380.126 300.731 380.126 300.731 380.126 300.731C380.126 300.731 380.126 300.731 380.126 300.731C380.126 300.731 380.126 300.731 380.126 300.731C380.126 300.731 380.126 300.731 380.126 300.731C380.126 300.731 380.126 300.731 380.126 300.731C380.126 300.731 380.126 300.731 380.126 300.731C380.126 300.731 380.126 300.731 380.126 300.731C380.126 300.731 380.126 300.731 380.126 300.731C380.126 300.731 380.126 300.731 380.126 300.731C380.126 300.731 380.126 300.731 380.126 300.731C380.126 300.731 380.126 300.731 380.126 300.731C380.126 300.731 380.126 300.731 380.126 300.731C380.126 300.731 380.126 300.731 380.126 300.731C380.126 300.731 380.126 300.731 380.126 300.731C380.126 300.731 380.126 300.731 380.126 300.731C380.126 300.731 380.126 300.731 380.126 300.731C380.126 300.731 380.126 300.731 380.126 300.731C380.126 300.731 380.126 300.731 380.126 300.731C380.126 300.731 380.126 300.731 380.126 300.731C380.126 300.731 380.126 300.731 380.126 300.731C380.126 300.731 380.126 300.731 380.126 300.731C380.126 300.731 380.126 300.731 380.126 300.731C380.126 300.731 380.126 300.731 380.126 300.731C380.126 300.731 380.126 300.731 380.126 300.731C380.126 300.731 380.126 300.731 380.126 300.731C380.126 300.731 380.126 300.731 380.126 300.731C380.126 300.731 380.126 300.731 380.126 300.731C380.126 300.731 380.126 300.731 380.126 300.731C380.126 300.731 380.126 300.731 380.126 300.731C380.126 300.731 380.126 300.731 380.126 300.731C380.126 300.731 380.126 300.731 380.126 300.731C380.126 300.731 380.126 300.731 380.126 300.731C380.126 300.731 380.126 300.731 380.126 300.731C380.126 300.731 380.126 300.731 380.126 300.731C380.126 300.731 380.126 300.731 380.126 300.731C380.126 300.731 380.126 300.731 380.126 300.731C380.126 300.731 380.126 300.731 380.126 300.731C380.126 300.731 380.126 300.731 380.126 300.731C380.126 300.731 380.126 300.731 380.126 300.731C380.126 300.731 380.126 300.731 380.126 300.731C380.126 300.731 380.126 300.731 380.126 300.731C380.126 300.731 380.126 300.731 380.126 300.731C380.126 300.731 380.126 300.731 380.126 300.731C380.126 300.731 380.126 300.731 380.126 300.731C380.126 300.731 380.126 300.731 380.126 300.731C380.126 300.731 380.126 300.731 380.126 300.731C380.126 300.731 380.126 300.731 380.126 300.731C380.126 300.731 380.126 300.731 380.126 300.731C380.126 300.731 380.126 300.731 380.126 300.731C380.126 300.731 380.126 300.731 380.126 300.731C380.126 300.731 380.126 300.731 380.126 300.731C380.126 300.731 380.126 300.731 380.126 300.731C380.126 300.731 380.126 300.731 380.126 300.731C380.126 300.731 380.126 300.731 380.126 300.731C380.126 300.731 380.126 300.731 380.126 300.731C380.126 300.731 380.126 300.731 380.126 300.731C380.126 300.731 380.126 300.731 380.126 300.731C380.126 300.731 380.126 300.731 380.126 300.731C380.126 300.731 380.126 300.731 380.126 300.731C380.126 300.731 380.126 300.731 380.126 300.731C380.126 300.731 380.126 300.731 380.126 300.731C380.126 300.731 380.126 300.731 380.126 300.731C380.126 300.731 380.126 300.731 380.126 300.731C380.126 300.731 380.126 300.731 380.126 300.731C380.126 300.731 380.126 300.731 380.126 300.731C380.126 300.731 380.126 300.731 380.126 300.731C380.126 300.731 380.126 300.731 380.126 300.731C380.126 300.731 380.126 300.731 380.126 300.731C380.126 300.731 380.126 300.731 380.126 300.731C380.126 300.731 380.126 300.731 380.126 300.731C380.126 300.731 380.126 300.731 380.126 300.731C380.126 300.731 380.126 300.731 380.126 300.731C380.126 300.731 380.126 300.731 380.126 300.731C380.126 300.731 380.126 300.731 380.126 300.731C380.126 300.731 380.126 300.731 380.126 300.731C380.126 300.731 380.126 300.731 380.126 300.731C380.126 300.731 380.126 300.731 380.126 300.731C380.126 300.731 380.126 300.731 380.126 300.731C380.126 300.731 380.126 300.731 380.126 300.731C380.126 300.731 380.126 300.731 380.126 300.731C380.126 300.731 380.126 300.731 380.126 300.731C380.126 300.731 380.126 300.731 380.126 300.731C380.126 300.731 380.126 300.731 380.126 300.731C380.126 300.731 380.126 300.731 380.126 300.731C380.126 300.731 380.126 300.731 380.126 300.731C380.126 300.731 380.126 300.731 380.126 300.731C380.126 300.731 380.126 300.731 380.126 300.731C380.126 300.731 380.126 300.731 380.126 300.731C380.126 300.731 380.126 300.731 380.126 300.731C380.126 300.731 380.126 300.731 380.126 300.731C380.126 300.731 380.126 300.731 380.126 300.731C380.126 300.731 380.126 300.731 380.126 300.731C380.126 300.731 380.126 300.731 380.126 300.731C380.126 300.731 380.126 300.731 380.126 300.731C380.126 300.731 380.126 300.731 380.126 300.731C380.126 300.731 380.126 300.731 380.126 300.731C380.126 300.731 380.126 300.731 380.126 300.731C380.126 300.731 380.126 300.731 380.126 300.731C380.126 300.731 380.126 300.731 380.126 300.731C380.126 300.731 380.126 300.731 380.126 300.731C380.126 300.731 380.126 300.731 380.126 300.731C380.126 300.731 380.126 300.731 380.126 300.731C380.126 300.731 380.126 300.731 380.126 300.731C380.126 300.731 380.126 300.731 380.126 300.731C380.126 300.731 380.126 300.731 380.126 300.731C380.126 300.731 380.126 300.731 380.126 300.731C380.126 300.731 380.126 300.731 380.126 300.731C380.126 300.731 380.126 300.731 380.126 300.731C380.126 300.731 380.126 300.731 380.126 300.731C380.126 300.731 380.126 300.731 380.126 300.731C380.126 300.731 380.126 300.731 380.126 300.731C380.126 300.731 380.126 300.731 380.126 300.731C380.126 300.731 380.126 300.731 380.126 300.731C380.126 300.731 380.126 300.731 380.126 300.731C380.126 300.731 380.126 300.731 380.126 300.731C380.126 300.731 380.126 300.731 380.126 300.731C380.126 300.731 380.126 300.731 380.126 300.731C380.126 300.731 380.126 300.731 380.126 300.731C380.126 300.731 380.126 300.731 380.126 300.731C380.126 300.731 380.126 300.731 380.126 300.731C380.126 300.731 380.126 300.731 380.126 300.731C380.126 300.731 380.126 300.731 380.126 300.731C380.126 300.731 380.126 300.731 380.126 300.731C380.126 300.731 380.126 300.731 380.126 300.731C380.126 300.731 380.126 300.731 380.126 300.731C380.126 300.731 380.126 300.731 380.126 300.731C380.126 300.731 380.126 300.731 380.126 300.731C380.126 300.731 380.126 300.731 380.126 300.731C380.126 300.731 380.126 300.731 380.126 300.731C380.126 300.731 380.126 300.731 380.126 300.731C380.126 300.731 380.126 300.731 380.126 300.731C380.126 300.731 380.126 300.731 380.126 300.731C380.126 300.731 380.126 300.731 380.126 300.731C380.126 300.731 380.126 300.731 380.126 300.731C380.126 300.731 380.126 300.731 380.126 300.731C380.126 300.731 380.126 300.731 380.126 300.731C380.126 300.731 380.126 300.731 380.126 300.731C380.126 300.731 380.126 300.731 380.126 300.731C380.126 300.731 380.126 300.731 380.126 300.731C380.126 300.731 380.126 300.731 380.126 300.731C380.126 300.731 380.126 300.731 380.126 300.731C380.126 300.731 380.126 300.731 380.126 300.731C380.126 300.731 380.126 300.731 380.126 300.731C380.126 300.731 380.126 300.731 380.126 300.731C380.126 300.731 380.126 300.731 380.126 300.731C380.126 300.731 380.126 300.731 380.126 300.731C380.126 300.731 380.126 300.731 380.126 300.731C380.126 300.731 380.126 300.731 380.126 300.731C380.126 300.731 380.126 300.731 380.126 300.731C380.126 300.731 380.126 300.731 380.126 300.731C380.126 300.731 380.126 300.731 380.126 300.731C380.126 300.731 380.126 300.731 380.126 300.731C380.126 300.731 380.126 300.731 380.126 300.731C380.126 300.731 380.126 300.731 380.126 300.731C380.126 300.731 380.126 300.731 380.126 300.731C380.126 300.731 380.126 300.731 380.126 300.731C380.126 300.731 380.126 300.731 380.126 300.731C380.126 300.731 380.126 300.731 380.126 300.731C380.126 300.731 380.126 300.731 380.126 300.731C380.126 300.731 380.126 300.731 380.126 300.731C380.126 300.731 380.126 300.731 380.126 300.731C380.126 300.731 380.126 300.731 380.126 300.731C380.126 300.731 380.126 300.731 380.126 300.731C380.126 300.731 380.126 300.731 380.126 300.731C380.126 300.731 380.126 300.731 380.126 300.731C380.126 300.731 380.126 300.731 380.126 300.731C380.126 300.731 380.126 300.731 380.126 300.731C380.126 300.731 380.126 300.731 380.126 300.731C380.126 300.731 380.126 300.731 380.126 300.731C380.126 300.731 380.126 300.731 380.126 300.731C380.126 300.731 380.126 300.731 380.126 300.731C380.126 300.731 380.126 300.731 380.126 300.731C380.126 300.731 380.126 300.731 380.126 300.731C380.126 300.731 380.126 300.731 380.126 300.731C380.126 300.731 380.126 300.731 380.126 300.731C380.126 300.731 380.126 300.731 380.126 300.731C380.126 300.731 380.126 300.731 380.126 300.731C380.126 300.731 380.126 300.731 380.126 300.731C380.126 300.731 380.126 300.731 380.126 300.731C380.126 300.731 380.126 300.731 380.126 300.731C380.126 300.731 380.126 300.731 380.126 300.731C380.126 300.731 380.126 300.731 380.126 300.731C380.126 300.731 380.126 300.731 380.126 300.731C380.126 300.731 380.126 300.731 380.126 300.731C380.126 300.731 380.126 300.731 380.126 300.731C380.126 300.731 380.126 300.731 380.126 300.731C380.126 300.731 380.126 300.731 380.126 300.731C380.126 300.731 380.126 300.731 380.126 300.731C380.126 300.731 380.126 300.731 380.126 300.731C380.126 300.731 380.126 300.731 380.126 300.731C380.126 300.731 380.126 300.731 380.126 300.731C380.126 300.731 380.126 300.731 380.126 300.731C380.126 300.731 380.126 300.731 380.126 300.731C380.126 300.731 380.126 300.731 380.126 300.731C380.126 300.731 380.126 300.731 380.126 300.731C380.126 300.731 380.126 300.731 380.126 300.731C380.126 300.731 380.126 300.731 380.126 300.731C380.126 300.731 380.126 300.731 380.126 300.731C380.126 300.731 380.126 300.731 380.126 300.731C380.126 300.731 380.126 300.731 380.126 300.731C380.126 300.731 380.126 300.731 380.126 300.731C380.126 300.731 380.126 300.731 380.126 300.731C380.126 300.731 380.126 300.731 380.126 300.731C380.126 300.731 380.126 300.731 380.126 300.731C380.126 300.731 380.126 300.731 380.126 300.731C380.126 300.731 380.126 300.731 380.126 300.731C380.126 300.731 380.126 300.731 380.126 300.731C380.126 300.731 380.126 300.731 380.126 300.731C380.126 300.731 380.126 300.731 380.126 300.731C380.126 300.731 380.126 300.731 380.126 300.731C380.126 300.731 380.126 300.731 380.126 300.731C380.126 300.731 380.126 300.731 380.126 300.731C380.126 300.731 380.126 300.731 380.126 300.731C380.126 300.731 380.126 300.731 380.126 300.731C380.126 300.731 380.126 300.731 380.126 300.731C380.126 300.731 380.126 300.731 380.126 300.731C380.126 300.731 380.126 300.731 380.126 300.731C380.126 300.731 380.126 300.731 380.126 300.731C380.126 300.731 380.126 300.731 380.126 300.731C380.126 300.731 380.126 300.731 380.126 300.731C380.126 300.731 380.126 300.731 380.126 300.731C380.126 300.731 380.126 300.731 380.126 300.731C380.126 300.731 380.126 300.731 380.126 300.731C380.126 300.731 380.126 300.731 380.126 300.731C380.126 300.731 380.126 300.731 380.126 300.731C380.126 300.731 380.126 300.731 380.126 300.731C380.126 300.731 380.126 300.731 380.126 300.731C380.126 300.731 380.126 300.731 380.126 300.731C380.126 300.731 380.126 300.731 380.126 300.731C380.126 300.731 380.126 300.731 380.126 300.731C380.126 300.731 380.126 300.731 380.126 300.731C380.126 300.731 380.126 300.731 380.126 300.731C380.126 300.731 380.126 300.731 380.126 300.731C380.126 300.731 380.126 300.731 380.126 300.731C380.126 300.731 380.126 300.731 380.126 300.731C380.126 300.731 380.126 300.731 380.126 300.731C380.126 300.731 380.126 300.731 380.126 300.731C380.126 300.731 380.126 300.731 380.126 300.731C380.126 300.731 380.126 300.731 380.126 300.731C380.126 300.731 380.126 300.731 380.126 300.731C380.126 300.731 380.126 300.731 380.126 300.731C380.126 300.731 380.126 300.731 380.126 300.731C380.126 300.731 380.126 300.731 380.126 300.731C380.126 300.731 380.126 300.731 380.126 300.731C380.126 300.731 380.126 300.731 380.126 300.731C380.126 300.731 380.126 300.731 380.126 300.731C380.126 300.731 380.126 300.731 380.126 300.731C380.126 300.731 380.126 300.731 380.126 300.731C380.126 300.731 380.126 300.731 380.126 300.731C380.126 300.731 380.126 300.731 380.126 300.731C380.126 300.731 380.126 300.731 380.126 300.731C380.126 300.731 380.126 300.731 380.126 300.731C380.126 300.731 380.126 300.731 380.126 300.731C380.126 300.731 380.126 300.731 380.126 300.731C380.126 300.731 380.126 300.731 380.126 300.731C380.126 300.731 380.126 300.731 380.126 300.731C380.126 300.731 380.126 300.731 380.126 300.731C380.126 300.731 380.126 300.731 380.126 300.731C380.126 300.731 380.126 300.731 380.126 300.731C380.126 300.731 380.126 300.731 380.126 300.731C380.126 300.731 380.126 300.731 380.126 300.731C380.126 300.731 380.126 300.731 380.126 300.731C380.126 300.731 380.126 300.731 380.126 300.731C380.126 300.731 380.126 300.731 380.126 300.731C380.126 300.731 380.126 300.731 380.126 300.731C380.126 300.731 380.126 300.731 380.126 300.731C380.126 300.731 380.126 300.731 380.126 300.731C380.126 300.731 380.126 300.731 380.126 300.731C380.126 300.731 380.126 300.731 380.126 300.731C380.126 300.731 380.126 300.731 380.126 300.731C380.126 300.731 380.126 300.731 380.126 300.731C380.126 300.731 380.126 300.731 380.126 300.731C380.126 300.731 380.126 300.731 380.126 300.731C380.126 300.731 380.126 300.731 380.126 300.731C380.126 300.731 380.126 300.731 380.126 300.731C380.126 300.731 380.126 300.731 380.126 300.731C380.126 300.731 380.126 300.731 380.126 300.731C380.126 300.731 380.126 300.731 380.126 300.731C380.126 300.731 380.126 300.731 380.126 300.731C380.126 300.731 380.126 300.731 380.126 300.731C380.126 300.731 380.126 300.731 380.126 300.731C380.126 300.731 380.126 300.731 380.126 300.731C380.126 300.731 380.126 300.731 380.126 300.731C380.126 300.731 380.126 300.731 380.126 300.731C380.126 300.731 380.126 300.731 380.126 300.731C380.126 300.731 380.126 300.731 380.126 300.731C380.126 300.731 380.126 300.731 380.126 300.731C380.126 300.731 380.126 300.731 380.126 300.731C380.126 300.731 380.126 300.731 380.126 300.731C380.126 300.731 380.126 300.731 380.126 300.731C380.126 300.731 380.126 300.731 380.126 300.731C380.126 300.731 380.126 300.731 380.126 300.731C380.126 300.731 380.126 300.731 380.126 300.731C380.126 300.731 380.126 300.731 380.126 300.731C380.126 300.731 380.126 300.731 380.126 300.731C380.126 300.731 380.126 300.731 380.126 300.731C380.126 300.731 380.126 300.731 380.126 300.731C380.126 300.731 380.126 300.731 380.126 300.731C380.126 300.731 380.126 300.731 380.126 300.731C380.126 300.731 380.126 300.731 380.126 300.731C380.126 300.731 380.126 300.731 380.126 300.731C380.126 300.731 380.126 300.731 380.126 300.731C380.126 300.731 380.126 300.731 380.126 300.731C380.126 300.731 380.126 300.731 380.126 300.731C380.126 300.731 380.126 300.731 380.126 300.731C380.126 300.731 380.126 300.731 380.126 300.731C380.126 300.731 380.126 300.731 380.126 300.731C380.126 300.731 380.126 300.731 380.126 300.731C380.126 300.731 380.126 300.731 380.126 300.731C380.126 300.731 380.126 300.731 380.126 300.731C380.126 300.731 380.126 300.731 380.126 300.731C380.126 300.731 380.126 300.731 380.126 300.731C380.126 300.731 380.126 300.731 380.126 300.731C380.126 300.731 380.126 300.731 380.126 300.731C380.126 300.731 380.126 300.731 380.126 300.731C380.126 300.731 380.126 300.731 380.126 300.731C380.126 300.731 380.126 300.731 380.126 300.731L378.684 299.716ZM380.115 299.7L307.907 248.883L306.488 249.929L378.695 300.746L380.115 299.7Z" fill="black" mask="url(#path-45-inside-5_352_1656)"/>
<circle cx="7.41741" cy="7.41741" r="6.97665" transform="matrix(-1 -3.13059e-08 5.47862e-09 1 229.763 77.2422)" stroke="black" stroke-width="0.881517"/>
<rect y="0.623327" width="11.4808" height="11.4808" transform="matrix(-0.707107 0.707107 0.707107 0.707107 483.661 264.885)" stroke="black" stroke-width="0.881517"/>
<path d="M181.75 145.889L213.187 154.14L220.144 179.578L220.275 180.061L220.759 180.188L246.267 186.883L254.839 218.23L248.44 224.541L229.498 211.372L228.682 210.804L228.903 211.61L235.936 237.329L229.534 243.674L204.748 229.025L197.75 203.434L197.618 202.951L197.135 202.824L171.472 196.089L156.434 171.32L162.846 164.988L188.639 171.757L189.449 171.97L188.871 171.158L175.362 152.205L181.75 145.889Z" fill="black" stroke="black"/>
<path d="M181.953 178.362L182.436 178.489L182.304 178.007L175.348 152.569L206.501 160.745L213.457 186.183L213.589 186.666L214.072 186.792L239.581 193.487L248.076 224.554L222.568 217.86L222.084 217.733L222.216 218.215L229.172 243.653L198.02 235.477L191.064 210.039L190.932 209.556L190.448 209.429L164.94 202.734L156.445 171.667L181.953 178.362Z" fill="#D1F801" stroke="black"/>
<path d="M220.321 179.888L213.825 186.468" stroke="black"/>
<path d="M212.936 154.33L206.44 160.91" stroke="black"/>
<path d="M246.108 186.806L239.612 193.386" stroke="black"/>
<rect x="126.918" y="212.555" width="18.0135" height="18.0135" transform="rotate(45 126.918 212.555)" stroke="black"/>
<path d="M280.854 572.461H149.135C149.135 559.855 159.64 539.464 164.893 530.845C143.883 523.41 159.91 501.349 170.55 491.248C165.701 494.211 153.903 498.844 145.499 493.672C137.095 488.501 141.458 480.204 144.691 476.702C150.213 472.797 163.923 462.884 174.59 454.48C184.873 446.378 192.478 446.387 195.304 447.484L175.802 439.126C200.691 444.298 219.695 432.716 226.968 425.039C220.651 413.827 207.722 386.762 220.651 377.711C236.813 366.398 262.427 413.315 271.965 429.025C278.834 440.338 292.975 487.208 294.996 494.48C296.543 500.052 297.42 506.063 297.016 508.622L280.854 572.461Z" fill="#9FA8FB"/>
<path d="M240.402 443.928L250.853 497.41M143.175 478.824C142.805 481.686 143.478 487.531 149.135 488.016C156.206 488.622 171.256 479.733 172.165 471.854C172.893 465.551 168.428 462.09 166.105 461.147M196.496 473.546C197.204 476.745 200.206 483.43 206.105 483.268C213.479 483.066 222.868 466.541 223.984 461.147C224.59 458.217 224.426 452.51 215.941 451.803M156.408 524.683C159.808 525.491 168.226 525.127 172.67 516.4" stroke="black"/>
<path d="M164.892 530.44C164.892 530.44 200.448 464.985 204.893 459.733C209.337 454.48 216.125 448.662 225.499 452.864C234.873 457.066 232.637 470.911 230.348 477.511L221.055 509.834C222.006 510.638 223.107 511.685 224.287 512.953M239.237 549.027C239.237 532.95 230.623 519.763 224.287 512.953M258.227 496.501C250.415 497.233 232.691 501.549 224.287 512.953" stroke="black"/>
<path d="M170.448 491.248L193.807 478.18" stroke="black"/>
<path d="M226.307 491.826L248.025 497.915L231.539 472.662" stroke="black"/>
<path d="M168.05 493.622C171.484 492.848 177.207 493.32 178.706 498.546C179.59 501.627 177.966 506.551 177.696 507.056" stroke="black"/>
<path d="M195.196 447.409L210.752 454.076" stroke="black"/>
<path d="M239.58 375.97C239.58 411.302 214.242 439.838 183.11 439.838C151.978 439.838 126.64 411.302 126.64 375.97C126.64 340.637 151.978 312.101 183.11 312.101C214.242 312.101 239.58 340.637 239.58 375.97Z" fill="black" stroke="black"/>
<path d="M247.525 375.97C247.525 411.303 222.186 439.838 191.054 439.838C159.922 439.838 134.584 411.303 134.584 375.97C134.584 340.637 159.922 312.102 191.054 312.102C222.186 312.102 247.525 340.637 247.525 375.97Z" fill="#A9F801" stroke="black"/>
<path d="M227.901 375.97C227.901 399.057 211.348 417.666 191.054 417.666C170.76 417.666 154.208 399.057 154.208 375.97C154.208 352.883 170.76 334.274 191.054 334.274C211.348 334.274 227.901 352.883 227.901 375.97Z" fill="#5945FE" stroke="black"/>
<path d="M194.091 387.842L194.816 401.089L202.145 378.993L194.091 387.842Z" stroke="white"/>
<path d="M184.123 379.98L193.818 401.143L193.092 387.897L184.123 379.98Z" fill="white" stroke="white"/>
<path d="M192.983 366.118L191.95 347.213L202.47 373.26L193.912 383.086L192.983 366.118L192.983 366.118Z" stroke="white"/>
<mask id="path-68-inside-6_352_1656" fill="white">
<path fill-rule="evenodd" clip-rule="evenodd" d="M191.286 344.234L192.484 366.145L193.48 384.342L182.771 374.466L191.286 344.234Z"/>
</mask>
<path fill-rule="evenodd" clip-rule="evenodd" d="M191.286 344.234L192.484 366.145L193.48 384.342L182.771 374.466L191.286 344.234Z" fill="white"/>
<path d="M192.484 366.145L191.485 366.2L191.485 366.2L192.484 366.145ZM191.286 344.234L190.323 343.963L192.284 344.179L191.286 344.234ZM193.48 384.342L194.479 384.288L194.614 386.748L192.802 385.077L193.48 384.342ZM182.771 374.466L182.093 375.201L181.642 374.785L181.808 374.195L182.771 374.466ZM191.485 366.2L190.287 344.288L192.284 344.179L193.482 366.09L191.485 366.2ZM192.482 384.397L191.485 366.2L193.482 366.09L194.479 384.288L192.482 384.397ZM183.449 373.731L194.158 383.607L192.802 385.077L182.093 375.201L183.449 373.731ZM192.248 344.505L183.733 374.737L181.808 374.195L190.323 343.963L192.248 344.505Z" fill="white" mask="url(#path-68-inside-6_352_1656)"/>
<circle cx="7.76971" cy="7.76971" r="7.26971" transform="matrix(-1 0 0 1 279.619 361.757)" stroke="black"/>
<rect y="0.707107" width="11.9495" height="11.9495" transform="matrix(-0.707107 0.707107 0.707107 0.707107 289.31 411.005)" stroke="black"/>
<path d="M121.524 309.753H121.605C121.815 309.737 122.016 309.658 122.181 309.527C122.346 309.397 122.467 309.22 122.529 309.019C123.117 307.131 124.079 305.017 125.307 302.907C126.535 300.798 127.89 298.922 129.265 297.45C129.408 297.296 129.501 297.103 129.532 296.896C129.562 296.688 129.529 296.477 129.437 296.289C129.347 296.099 129.2 295.941 129.017 295.836C128.833 295.731 128.622 295.685 128.411 295.704C127.195 295.78 125.983 295.499 124.926 294.897C123.87 294.294 123.016 293.396 122.471 292.314C122.383 292.123 122.237 291.964 122.054 291.859C121.871 291.753 121.659 291.706 121.448 291.724C121.237 291.739 121.036 291.817 120.871 291.947C120.705 292.077 120.583 292.254 120.52 292.454C119.926 294.353 118.963 296.469 117.737 298.575C116.51 300.685 115.143 302.569 113.782 304.023C113.639 304.177 113.546 304.37 113.515 304.577C113.484 304.784 113.516 304.995 113.607 305.183C113.701 305.37 113.848 305.526 114.03 305.63C114.212 305.735 114.421 305.784 114.631 305.771C115.849 305.696 117.064 305.978 118.122 306.583C119.18 307.188 120.035 308.088 120.58 309.172C120.667 309.347 120.801 309.494 120.968 309.596C121.135 309.699 121.328 309.753 121.524 309.753Z" stroke="black" stroke-miterlimit="10"/>
<path d="M294.995 494.481C292.975 487.208 278.833 440.339 271.965 429.025C262.426 413.316 237.409 367.302 220.651 377.711C204.139 387.968 228.483 432.413 240.503 444.13" stroke="black"/>
<path d="M271.965 429.025C278.833 440.339 292.975 487.208 294.995 494.481L240.503 444.13C228.483 432.413 204.139 387.968 220.651 377.711C237.409 367.302 262.426 413.316 271.965 429.025Z" fill="#9FA8FB"/>
<path d="M271.965 429.025C262.426 413.316 237.409 367.302 220.651 377.711C204.139 387.968 228.483 432.413 240.503 444.13" stroke="black"/>
<path d="M236.462 380.493C233.028 379.214 226.563 378.675 228.18 386.756C230.2 396.857 239.695 412.817 255.453 402.514" stroke="black"/>
<path d="M149.135 572.461H280.854L297.016 508.622C297.42 506.063 296.543 500.052 294.996 494.48C292.975 487.208 278.834 440.338 271.965 429.025C262.427 413.315 236.813 366.398 220.651 377.711C207.722 386.762 220.651 413.827 226.968 425.039C219.695 432.716 200.691 444.298 175.802 439.126L195.6 447.611C193.041 446.399 185.257 446.076 174.59 454.48C163.923 462.884 150.213 472.797 144.691 476.702C141.458 480.204 137.095 488.501 145.499 493.672C153.903 498.844 165.701 494.211 170.55 491.248C159.91 501.349 143.883 523.41 164.893 530.845C159.64 539.464 149.135 559.855 149.135 572.461Z" stroke="black"/>
</g>
<circle cx="293.223" cy="293.137" r="291.92" stroke="#DFECFF" stroke-width="2"/>
<defs>
<linearGradient id="paint0_linear_352_1656" x1="259.393" y1="541.918" x2="-48.6531" y2="307.083" gradientUnits="userSpaceOnUse">
<stop stop-color="#CEE2FF"/>
<stop offset="1" stop-color="#DDFFF9"/>
</linearGradient>
</defs>
</svg>
